<svg width="14" height="14" viewBox="0 0 14 14" fill="none" xmlns="http://www.w3.org/2000/svg">
<path fill-rule="evenodd" clip-rule="evenodd" d="M6.88586 13.9991L6.99998 14C6.84545 14 6.69095 13.9949 6.53674 13.9849C6.3459 13.9724 6.15565 13.9522 5.96646 13.9242C5.74667 13.8917 5.52855 13.8486 5.31286 13.7953C5.10024 13.7427 4.89023 13.6801 4.68352 13.6076L4.68237 13.6072C4.34197 13.4878 4.01137 13.3421 3.69357 13.1715C3.46802 13.0504 3.24929 12.917 3.03837 12.7719C2.80118 12.6088 2.57425 12.4312 2.35886 12.2403C2.2836 12.1736 2.20977 12.1053 2.13744 12.0355C0.819524 10.7625 0 8.97693 0 6.99998C0 3.13402 3.13402 0 6.99998 0C7.91924 -4.30893e-06 8.82949 0.181052 9.67877 0.532833C10.5281 0.884613 11.2997 1.40023 11.9497 2.05024C12.5998 2.70025 13.1154 3.47192 13.4672 4.3212C13.8189 5.17048 14 6.08073 14 6.99998C14 8.977 13.1804 10.7626 11.8625 12.0355C11.8624 12.0356 11.8624 12.0357 11.8625 12.0359C11.5309 12.3559 11.1687 12.6427 10.7812 12.8919L10.7757 12.8954C10.6879 12.9518 10.5987 13.0063 10.5083 13.0587L10.4988 13.0643C10.3407 13.1556 10.1791 13.2408 10.0143 13.3195C9.94985 13.3503 9.88493 13.3801 9.81959 13.4089C9.75143 13.4389 9.68283 13.4678 9.61379 13.4957C9.54685 13.5226 9.47953 13.5485 9.41183 13.5734C9.3434 13.5985 9.27459 13.6225 9.20544 13.6455C9.13746 13.668 9.06914 13.6895 9.00053 13.7099C8.92783 13.7315 8.85479 13.752 8.78144 13.7713C8.71005 13.79 8.63838 13.8076 8.56645 13.8241C8.49468 13.8404 8.42266 13.8557 8.35041 13.8698C8.05593 13.9274 7.75804 13.9659 7.4586 13.9852C7.38418 13.99 7.30969 13.9937 7.23515 13.9961L7.23371 13.9962C7.1178 14 7.00182 14.0009 6.88586 13.9991ZM7.70001 9.8H6.29999C5.18493 9.8 4.20971 10.4562 3.76139 11.4156L3.7107 11.5318L3.75457 11.5642C4.55243 12.1325 5.50567 12.4969 6.53818 12.5812C6.569 12.5837 6.59989 12.586 6.63084 12.588L6.54245 12.5815C6.57252 12.584 6.60267 12.5862 6.63288 12.5881L6.63084 12.588C6.66077 12.59 6.69074 12.5917 6.72075 12.5932L6.63288 12.5881C6.66405 12.5902 6.69531 12.5919 6.72666 12.5934L6.72075 12.5932C6.74326 12.5943 6.76577 12.5952 6.78828 12.5961L6.99998 12.6L7.08776 12.5993C7.12003 12.5988 7.1523 12.5981 7.18455 12.597L7.09596 12.5992C7.12582 12.5987 7.15562 12.598 7.18537 12.597L7.18455 12.597C7.21454 12.596 7.24449 12.5948 7.27439 12.5934L7.18537 12.597C7.21622 12.5959 7.24705 12.5947 7.27787 12.5932L7.27439 12.5934C7.30554 12.5919 7.33661 12.5901 7.36758 12.5881L7.27787 12.5932C7.30821 12.5917 7.33851 12.59 7.36876 12.588L7.36761 12.5881C7.39793 12.5861 7.42819 12.5839 7.45837 12.5815L7.36873 12.588C7.39957 12.586 7.43038 12.5838 7.46116 12.5813L7.45837 12.5815C7.48769 12.5791 7.51693 12.5765 7.54611 12.5737L7.46116 12.5813C7.49179 12.5788 7.52235 12.576 7.55284 12.5731L7.54611 12.5737C8.54414 12.4771 9.46551 12.1185 10.2406 11.5676L10.2886 11.5318L10.2386 11.4157C9.80995 10.498 8.899 9.85762 7.84464 9.80368L7.70001 9.8ZM6.99998 1.40001C3.90721 1.40001 1.40001 3.90721 1.40001 6.99998C1.40001 8.33558 1.86755 9.56198 2.6479 10.5244C3.37069 9.25545 4.73543 8.39999 6.29999 8.39999H7.70001C9.2646 8.39999 10.6294 9.25551 11.352 10.5243C12.1324 9.56198 12.6 8.33558 12.6 6.99998C12.6 3.90721 10.0928 1.40001 6.99998 1.40001ZM6.99998 2.1C8.5464 2.1 9.8 3.3536 9.8 4.89999C9.8 6.39952 8.62121 7.62375 7.13973 7.69659L6.99998 7.70001C5.4536 7.70001 4.2 6.4464 4.2 4.89999C4.2 3.40046 5.37878 2.17622 6.86024 2.10341L6.99998 2.1ZM6.99998 3.50001C6.22679 3.50001 5.60001 4.12679 5.60001 4.89999C5.60001 5.67318 6.22679 6.3 6.99998 6.3C7.77318 6.3 8.39999 5.67318 8.39999 4.89999C8.39999 4.12679 7.77318 3.50001 6.99998 3.50001Z" fill="white"/>
</svg>
