<svg width="24" height="24" viewBox="0 0 24 24" fill="none" xmlns="http://www.w3.org/2000/svg">
<path d="M19.125 3.46875H17.6953V1.33594H16.2656V3.46875H7.73438V1.33594H6.30469V3.46875H4.875C3.90625 3.46875 3.07422 3.81641 2.37891 4.51172C1.68359 5.20703 1.33594 6.04688 1.33594 7.03125V19.125C1.33594 20.0938 1.68359 20.9258 2.37891 21.6211C3.07422 22.3164 3.90625 22.6641 4.875 22.6641H19.125C20.0938 22.6641 20.9258 22.3164 21.6211 21.6211C22.3164 20.9258 22.6641 20.0938 22.6641 19.125V7.03125C22.6641 6.04688 22.3164 5.20703 21.6211 4.51172C20.9258 3.81641 20.0938 3.46875 19.125 3.46875ZM21.2578 19.125C21.2578 19.7031 21.0469 20.2031 20.625 20.625C20.2031 21.0469 19.7031 21.2578 19.125 21.2578H4.875C4.29688 21.2578 3.79688 21.0469 3.375 20.625C2.95312 20.2031 2.74219 19.7031 2.74219 19.125V7.03125C2.74219 6.4375 2.95312 5.92969 3.375 5.50781C3.79688 5.08594 4.29688 4.875 4.875 4.875H6.30469V7.03125H7.73438V4.875H16.2656V7.03125H17.6953V4.875H19.1016C19.6953 4.875 20.1992 5.08594 20.6133 5.50781C21.0273 5.92969 21.2344 6.4375 21.2344 7.03125L21.2578 19.125ZM17.6953 13.4297H14.8359C14.4453 13.4297 14.1133 13.5664 13.8398 13.8398C13.5664 14.1133 13.4297 14.4453 13.4297 14.8359V17.6953C13.4297 18.0859 13.5664 18.418 13.8398 18.6914C14.1133 18.9648 14.4453 19.1016 14.8359 19.1016H17.6953C18.0859 19.1016 18.4219 18.9648 18.7031 18.6914C18.9844 18.418 19.125 18.0859 19.125 17.6953V14.8359C19.125 14.4453 18.9844 14.1133 18.7031 13.8398C18.4219 13.5664 18.0859 13.4297 17.6953 13.4297ZM17.6953 17.6953H14.8359V14.8359H17.6953V17.6953Z" fill="#626262"/>
</svg>
