<svg width="17" height="20" viewBox="0 0 17 20" fill="none" xmlns="http://www.w3.org/2000/svg">
<path d="M8.80981 18.57C8.64661 18.6872 8.45074 18.7503 8.24981 18.7503C8.04888 18.7503 7.85301 18.6872 7.68981 18.57C2.86081 15.128 -2.26419 8.048 2.91681 2.932C4.33915 1.53285 6.25465 0.749124 8.24981 0.750001C10.2498 0.750001 12.1688 1.535 13.5828 2.931C18.7638 8.047 13.6388 15.126 8.80981 18.57Z" stroke="#626262" stroke-width="1.5" stroke-linecap="round" stroke-linejoin="round"/>
<path d="M8.24982 9.75C8.78025 9.75 9.28896 9.53929 9.66403 9.16421C10.0391 8.78914 10.2498 8.28043 10.2498 7.75C10.2498 7.21957 10.0391 6.71086 9.66403 6.33579C9.28896 5.96071 8.78025 5.75 8.24982 5.75C7.71938 5.75 7.21068 5.96071 6.8356 6.33579C6.46053 6.71086 6.24982 7.21957 6.24982 7.75C6.24982 8.28043 6.46053 8.78914 6.8356 9.16421C7.21068 9.53929 7.71938 9.75 8.24982 9.75Z" stroke="#626262" stroke-width="1.5" stroke-linecap="round" stroke-linejoin="round"/>
</svg>
