<svg width="18" height="18" viewBox="0 0 18 18" fill="none" xmlns="http://www.w3.org/2000/svg">
<path d="M17.7697 16.7497L13.3297 12.2497C14.1697 11.2497 14.6997 10.1097 14.9197 8.82971C15.1397 7.54971 15.0397 6.29971 14.6197 5.07971C14.1997 3.85971 13.4997 2.80971 12.5197 1.92971C11.5397 1.04971 10.4297 0.469706 9.18968 0.189707C7.94968 -0.0902939 6.69968 -0.0602932 5.43968 0.279707C4.17968 0.619705 3.08968 1.24971 2.16968 2.16971C1.24968 3.08971 0.619677 4.17971 0.279677 5.43971C-0.0603226 6.69971 -0.0903226 7.94971 0.189677 9.1897C0.469677 10.4297 1.04968 11.5397 1.92968 12.5197C2.80968 13.4997 3.85968 14.1997 5.07968 14.6197C6.29968 15.0397 7.54968 15.1397 8.82968 14.9197C10.1097 14.6997 11.2497 14.1697 12.2497 13.3297L16.7497 17.7697C16.8697 17.9297 17.0397 18.0097 17.2597 18.0097C17.4797 18.0097 17.6597 17.9397 17.7997 17.7997C17.9397 17.6597 18.0097 17.4797 18.0097 17.2597C18.0097 17.0397 17.9297 16.8697 17.7697 16.7497ZM7.50968 13.5097C6.42968 13.5097 5.42968 13.2397 4.50968 12.6997C3.58968 12.1597 2.85968 11.4297 2.31968 10.5097C1.77968 9.58971 1.50968 8.58971 1.50968 7.50971C1.50968 6.42971 1.77968 5.42971 2.31968 4.50971C2.85968 3.58971 3.58968 2.85971 4.50968 2.31971C5.42968 1.77971 6.42968 1.50971 7.50968 1.50971C8.58968 1.50971 9.58968 1.77971 10.5097 2.31971C11.4297 2.85971 12.1597 3.58971 12.6997 4.50971C13.2397 5.42971 13.5097 6.42971 13.5097 7.50971C13.5097 8.58971 13.2397 9.58971 12.6997 10.5097C12.1597 11.4297 11.4297 12.1597 10.5097 12.6997C9.58968 13.2397 8.58968 13.5097 7.50968 13.5097Z" fill="white"/>
</svg>
