<svg width="20" height="20" viewBox="0 0 20 20" fill="none" xmlns="http://www.w3.org/2000/svg">
<path d="M4.55834 10.442C4.4419 10.3244 4.37658 10.1657 4.37658 10.0003C4.37658 9.83487 4.4419 9.67613 4.55834 9.55862L8.725 5.39196C8.78222 5.33055 8.85122 5.2813 8.92789 5.24714C9.00455 5.21298 9.08732 5.19461 9.17123 5.19313C9.25515 5.19165 9.33851 5.20709 9.41633 5.23852C9.49416 5.26996 9.56485 5.31674 9.6242 5.37609C9.68355 5.43544 9.73034 5.50614 9.76177 5.58396C9.79321 5.66178 9.80864 5.74514 9.80716 5.82906C9.80568 5.91298 9.78731 5.99574 9.75315 6.07241C9.71899 6.14907 9.66974 6.21807 9.60834 6.27529L6.50834 9.37529L15 9.37529C15.1658 9.37529 15.3247 9.44114 15.4419 9.55835C15.5592 9.67556 15.625 9.83453 15.625 10.0003C15.625 10.1661 15.5592 10.325 15.4419 10.4422C15.3247 10.5594 15.1658 10.6253 15 10.6253L6.50834 10.6253L9.60834 13.7253C9.71874 13.8438 9.77884 14.0005 9.77598 14.1624C9.77313 14.3243 9.70753 14.4788 9.59302 14.5933C9.47851 14.7078 9.32402 14.7734 9.1621 14.7763C9.00019 14.7791 8.84348 14.719 8.725 14.6086L4.55834 10.442Z" fill="black"/>
</svg>
