<svg width="12" height="10" viewBox="0 0 12 10" fill="none" xmlns="http://www.w3.org/2000/svg">
<path d="M11.0667 5.2486C11.1831 5.13109 11.2484 4.97236 11.2484 4.80693C11.2484 4.64151 11.1831 4.48277 11.0667 4.36526L6.89999 0.198596C6.84277 0.137191 6.77377 0.0879391 6.69711 0.0537794C6.62044 0.0196188 6.53768 0.00125197 6.45376 -0.000229091C6.36984 -0.00171015 6.28648 0.013727 6.20866 0.045161C6.13084 0.0765951 6.06014 0.123382 6.00079 0.182731C5.94144 0.24208 5.89466 0.312776 5.86322 0.390599C5.83179 0.468423 5.81635 0.55178 5.81783 0.635698C5.81931 0.719618 5.83768 0.802379 5.87184 0.879046C5.906 0.955712 5.95525 1.02471 6.01666 1.08193L9.11666 4.18193L0.624992 4.18193C0.459232 4.18193 0.30026 4.24778 0.183049 4.36499C0.065839 4.4822 -8.36705e-06 4.64117 -8.3743e-06 4.80693C-8.38155e-06 4.97269 0.065839 5.13166 0.183049 5.24887C0.30026 5.36608 0.459232 5.43193 0.624992 5.43193L9.11666 5.43193L6.01666 8.53193C5.90626 8.65041 5.84615 8.80712 5.84901 8.96903C5.85187 9.13095 5.91746 9.28544 6.03197 9.39995C6.14648 9.51446 6.30097 9.58005 6.46289 9.58291C6.62481 9.58577 6.78151 9.52566 6.89999 9.41526L11.0667 5.2486Z" fill="black"/>
</svg>
