<svg width="20" height="20" viewBox="0 0 20 20" fill="none" xmlns="http://www.w3.org/2000/svg">
<path d="M3.50002 8.21622H15.5M6.31899 5.2973V4M12.6618 5.2973V4M13.1 5.2973H5.90002C5.2635 5.2973 4.65305 5.53649 4.20296 5.96224C3.75287 6.388 3.50002 6.96545 3.50002 7.56757V13.7297C3.50002 14.3318 3.75287 14.9093 4.20296 15.3351C4.65305 15.7608 5.2635 16 5.90002 16H13.1C13.7365 16 14.347 15.7608 14.7971 15.3351C15.2472 14.9093 15.5 14.3318 15.5 13.7297V7.56757C15.5 6.96545 15.2472 6.388 14.7971 5.96224C14.347 5.53649 13.7365 5.2973 13.1 5.2973Z" stroke="#333333" stroke-linecap="round" stroke-linejoin="round"/>
</svg>
