<svg width="69" height="52" viewBox="0 0 69 52" fill="none" xmlns="http://www.w3.org/2000/svg">
<path d="M41.32 20.3543L36.9328 18.9935L36.3996 18.1656L36.4023 18.1649L36.403 18.1641C37.2056 17.7031 37.8074 16.9593 38.0906 16.0781C38.114 16.0845 38.1359 16.0969 38.16 16.1C38.1872 16.1045 38.2147 16.1064 38.2419 16.1064C38.6913 16.1064 39.1192 15.5445 39.2389 14.7735C39.3242 14.2441 39.2457 13.7505 39.0287 13.4524C38.9185 13.3007 38.7762 13.2086 38.6204 13.1845C38.5752 13.1785 38.5294 13.1784 38.4842 13.1841C38.6113 13.0241 38.6509 12.8747 38.6555 12.7588L38.6713 12.6615C38.6826 12.5935 38.6943 12.5256 38.7011 12.466C38.7351 12.2589 38.7653 12.0512 38.7917 11.843C38.8226 11.6026 38.8483 11.3584 38.8706 11.1147C39.7996 10.6558 40.3132 10.0573 40.3132 9.41958C40.3132 8.03618 37.8442 6.99316 34.5698 6.99316C31.2955 6.99316 28.8264 8.03618 28.8264 9.41958C28.8264 10.06 29.3408 10.6592 30.2709 11.1177C30.2951 11.3607 30.3189 11.6034 30.3498 11.8434C30.3774 12.0524 30.4049 12.2573 30.44 12.463L30.483 12.7392C30.4838 12.8584 30.5215 13.0158 30.6555 13.1837C30.6125 13.18 30.5691 13.1762 30.526 13.1837C30.3675 13.2079 30.2257 13.3007 30.1155 13.4509C29.8977 13.7479 29.8177 14.2422 29.9004 14.7735C30.0257 15.5558 30.446 16.1071 30.897 16.1071C30.9249 16.1071 30.9528 16.1049 30.9811 16.1007C31.006 16.0969 31.0287 16.0845 31.0528 16.0781C31.3384 16.9657 31.9467 17.7139 32.7574 18.1747L32.2634 18.9369L27.6789 20.3551C27.2394 20.4914 26.8552 20.7648 26.5823 21.1353C26.3094 21.5058 26.1622 21.9538 26.1623 22.4139V22.7686C26.1623 24.0026 27.1679 25.0064 28.4038 25.0064H40.5962C41.8321 25.0064 42.8377 24.0026 42.8377 22.7686V22.4139C42.8388 21.9534 42.6919 21.5046 42.4186 21.1339C42.1454 20.7631 41.7603 20.4896 41.32 20.3543ZM38.56 13.5569C38.6181 13.566 38.6732 13.6056 38.7238 13.6739C38.8781 13.8864 38.934 14.2943 38.8664 14.7139V14.7151C38.7698 15.3369 38.4404 15.7615 38.2151 15.7271C38.2062 15.7257 38.1974 15.7236 38.1887 15.7211C38.2034 15.6494 38.2113 15.5777 38.2219 15.506C38.2287 15.4607 38.2377 15.4154 38.2426 15.3701C38.2581 15.2305 38.2679 15.092 38.2679 14.9551V13.7098C38.3668 13.5966 38.4709 13.5415 38.56 13.5569ZM30.457 10.7894C29.6502 10.3969 29.2038 9.91316 29.2038 9.41958C29.2038 8.27052 31.5608 7.37052 34.5698 7.37052C37.5785 7.37052 39.9359 8.27052 39.9359 9.41958C39.9359 9.9109 39.4887 10.3951 38.6811 10.7883C36.0301 9.79277 33.1078 9.79318 30.457 10.7894ZM30.6494 11.1188C33.1805 10.1841 35.9622 10.1841 38.4932 11.1188C38.4721 11.3452 38.446 11.5717 38.4174 11.7943C38.3902 11.9981 38.3634 12.1988 38.3275 12.4124L38.3204 12.4679C37.129 11.986 35.8557 11.7386 34.5706 11.7392C33.2955 11.7392 32.0204 11.9815 30.8226 12.4671L30.8125 12.403C30.7794 12.2009 30.75 11.9982 30.7242 11.7951C30.6961 11.57 30.6712 11.3446 30.6494 11.1188ZM30.926 15.7275C30.7019 15.7622 30.3728 15.3362 30.2732 14.7151C30.2075 14.2939 30.2653 13.8849 30.42 13.6735C30.4702 13.6049 30.5253 13.566 30.5872 13.5566C30.5959 13.555 30.6047 13.5543 30.6136 13.5543C30.6917 13.5543 30.7842 13.6098 30.8755 13.7105V14.9554C30.8755 15.092 30.8849 15.2305 30.9008 15.3705C30.9057 15.4143 30.9143 15.4592 30.9211 15.5037C30.9317 15.5754 30.9396 15.6483 30.9543 15.7207C30.9451 15.7238 30.9356 15.726 30.926 15.7275ZM30.8902 12.8501C33.2468 11.8755 35.8938 11.8754 38.2506 12.8498C38.2072 12.946 38.1136 13.0467 37.9728 13.143C37.3502 13.5675 36.0147 13.8422 34.5698 13.8422C34.3891 13.8422 34.2106 13.8381 34.0343 13.8298C32.803 13.7713 31.7136 13.5147 31.1694 13.1422C31.0279 13.0471 30.9343 12.9475 30.8902 12.8501ZM31.3498 15.7611C31.2864 15.4972 31.2538 15.2268 31.2528 14.9554V13.6252C31.3525 13.6743 31.4619 13.7211 31.5781 13.7649C31.6159 13.7796 31.6581 13.7924 31.6974 13.806C31.7804 13.8351 31.8642 13.8634 31.9536 13.8894C32.0049 13.9045 32.0589 13.9181 32.1121 13.9317C32.2574 13.9713 32.4041 14.0053 32.5521 14.0335C32.6423 14.0513 32.734 14.0675 32.8279 14.0826C32.8917 14.0935 32.9555 14.1034 33.0208 14.1128C33.1196 14.1271 33.22 14.1388 33.3223 14.1498C33.3868 14.1573 33.4506 14.1649 33.5162 14.1709C33.6302 14.1815 33.746 14.1886 33.863 14.1962C33.9204 14.1996 33.9762 14.2045 34.034 14.2071C34.3911 14.2232 34.7489 14.2232 35.106 14.2071C35.1634 14.2045 35.2185 14.1996 35.2751 14.1958C35.3928 14.1894 35.5098 14.1815 35.6245 14.1709C35.6894 14.1649 35.7525 14.1577 35.8162 14.1505C36.0759 14.1226 36.3343 14.0834 36.5906 14.0332C36.7385 14.0044 36.8854 13.9706 37.0309 13.9317C37.0834 13.9177 37.137 13.9041 37.1872 13.8894C37.2774 13.863 37.3619 13.8351 37.4453 13.806C37.4845 13.792 37.5264 13.7796 37.5638 13.7652C37.6804 13.7211 37.7902 13.6747 37.8906 13.6252V14.9554C37.8906 15.2181 37.8577 15.4883 37.794 15.7584C37.6841 16.1932 37.4877 16.6013 37.2166 16.9584C36.9454 17.3155 36.6051 17.6143 36.2159 17.8369H36.2155C35.2298 18.4026 33.9328 18.4067 32.946 17.8479L32.9457 17.8475C32.5524 17.6256 32.2082 17.3263 31.934 16.9676C31.6597 16.6089 31.4609 16.1987 31.3498 15.7611ZM42.4604 22.7683C42.4604 23.7947 41.6242 24.6286 40.5962 24.6286H28.4038C27.3759 24.6286 26.5396 23.7947 26.5396 22.7683V22.4135C26.5398 22.034 26.6614 21.6644 26.8866 21.3588C27.1118 21.0532 27.4288 20.8277 27.7913 20.7151L32.4411 19.2766C32.4832 19.2636 32.5193 19.2364 32.5434 19.1996L33.0992 18.3403C33.5596 18.5403 34.0608 18.6498 34.5736 18.6498C35.0852 18.6482 35.5908 18.5402 36.0585 18.3328L36.6525 19.2554C36.6766 19.2932 36.7132 19.3207 36.7551 19.3335L41.2079 20.7147C41.5713 20.8262 41.8891 21.0516 42.1146 21.3576C42.3401 21.6635 42.4613 22.0338 42.4604 22.4139V22.7683Z" fill="white" stroke="white" stroke-width="0.4"/>
<path d="M12.5217 42.144C11.7057 42.144 10.9977 41.964 10.3977 41.604C9.80567 41.236 9.34967 40.728 9.02967 40.08C8.70967 39.424 8.54967 38.664 8.54967 37.8C8.54967 36.936 8.70967 36.18 9.02967 35.532C9.34967 34.876 9.80567 34.368 10.3977 34.008C10.9977 33.64 11.7057 33.456 12.5217 33.456C13.4817 33.456 14.2617 33.684 14.8617 34.14C15.4617 34.596 15.8457 35.24 16.0137 36.072H14.8977C14.7697 35.552 14.5097 35.136 14.1177 34.824C13.7257 34.504 13.1937 34.344 12.5217 34.344C11.9217 34.344 11.4017 34.484 10.9617 34.764C10.5217 35.036 10.1817 35.432 9.94167 35.952C9.70167 36.464 9.58167 37.08 9.58167 37.8C9.58167 38.52 9.70167 39.14 9.94167 39.66C10.1817 40.172 10.5217 40.568 10.9617 40.848C11.4017 41.12 11.9217 41.256 12.5217 41.256C13.1937 41.256 13.7257 41.104 14.1177 40.8C14.5097 40.488 14.7697 40.076 14.8977 39.564H16.0137C15.8457 40.372 15.4617 41.004 14.8617 41.46C14.2617 41.916 13.4817 42.144 12.5217 42.144ZM17.1752 42V33.36H18.1832V36.972C18.3832 36.612 18.6632 36.328 19.0232 36.12C19.3912 35.912 19.7912 35.808 20.2232 35.808C20.6872 35.808 21.0912 35.904 21.4352 36.096C21.7792 36.28 22.0432 36.564 22.2272 36.948C22.4112 37.332 22.5032 37.816 22.5032 38.4V42H21.5072V38.508C21.5072 37.9 21.3792 37.444 21.1232 37.14C20.8672 36.828 20.4952 36.672 20.0072 36.672C19.6632 36.672 19.3512 36.756 19.0712 36.924C18.7992 37.092 18.5832 37.332 18.4232 37.644C18.2632 37.956 18.1832 38.34 18.1832 38.796V42H17.1752ZM25.8056 42.144C25.3176 42.144 24.9096 42.06 24.5816 41.892C24.2536 41.716 24.0096 41.488 23.8496 41.208C23.6896 40.92 23.6096 40.608 23.6096 40.272C23.6096 39.864 23.7136 39.52 23.9216 39.24C24.1376 38.952 24.4376 38.736 24.8216 38.592C25.2136 38.44 25.6736 38.364 26.2016 38.364H27.7976C27.7976 37.988 27.7376 37.676 27.6176 37.428C27.5056 37.172 27.3376 36.98 27.1136 36.852C26.8976 36.724 26.6256 36.66 26.2976 36.66C25.9136 36.66 25.5816 36.756 25.3016 36.948C25.0216 37.14 24.8496 37.424 24.7856 37.8H23.7536C23.8016 37.368 23.9456 37.008 24.1856 36.72C24.4336 36.424 24.7456 36.2 25.1216 36.048C25.4976 35.888 25.8896 35.808 26.2976 35.808C26.8576 35.808 27.3216 35.912 27.6896 36.12C28.0656 36.32 28.3456 36.604 28.5296 36.972C28.7136 37.332 28.8056 37.76 28.8056 38.256V42H27.9056L27.8456 40.932C27.7656 41.1 27.6616 41.26 27.5336 41.412C27.4136 41.556 27.2696 41.684 27.1016 41.796C26.9336 41.9 26.7416 41.984 26.5256 42.048C26.3176 42.112 26.0776 42.144 25.8056 42.144ZM25.9616 41.292C26.2416 41.292 26.4936 41.236 26.7176 41.124C26.9496 41.004 27.1456 40.844 27.3056 40.644C27.4656 40.436 27.5856 40.208 27.6656 39.96C27.7536 39.712 27.7976 39.452 27.7976 39.18V39.144H26.2856C25.8936 39.144 25.5776 39.192 25.3376 39.288C25.0976 39.376 24.9256 39.504 24.8216 39.672C24.7176 39.832 24.6656 40.016 24.6656 40.224C24.6656 40.44 24.7136 40.628 24.8096 40.788C24.9136 40.948 25.0616 41.072 25.2536 41.16C25.4536 41.248 25.6896 41.292 25.9616 41.292ZM32.3209 42.144C31.8569 42.144 31.4489 42.052 31.0969 41.868C30.7529 41.684 30.4849 41.4 30.2929 41.016C30.1089 40.632 30.0169 40.152 30.0169 39.576V35.952H31.0249V39.468C31.0249 40.068 31.1569 40.52 31.4209 40.824C31.6849 41.128 32.0569 41.28 32.5369 41.28C32.8729 41.28 33.1769 41.2 33.4489 41.04C33.7209 40.872 33.9329 40.636 34.0849 40.332C34.2449 40.02 34.3249 39.64 34.3249 39.192V35.952H35.3329V42H34.4209L34.3609 40.944C34.1769 41.32 33.9049 41.616 33.5449 41.832C33.1849 42.04 32.7769 42.144 32.3209 42.144ZM37.0998 42V35.016C37.0998 34.632 37.1638 34.32 37.2918 34.08C37.4198 33.832 37.6078 33.652 37.8558 33.54C38.1118 33.42 38.4238 33.36 38.7918 33.36H39.4758V34.224H38.9478C38.6518 34.224 38.4358 34.284 38.2998 34.404C38.1718 34.524 38.1078 34.736 38.1078 35.04V42H37.0998ZM36.1758 36.804V35.952H39.6318V36.804H36.1758ZM40.938 42V35.016C40.938 34.632 41.002 34.32 41.13 34.08C41.258 33.832 41.446 33.652 41.694 33.54C41.95 33.42 42.262 33.36 42.63 33.36H43.314V34.224H42.786C42.49 34.224 42.274 34.284 42.138 34.404C42.01 34.524 41.946 34.736 41.946 35.04V42H40.938ZM40.014 36.804V35.952H43.47V36.804H40.014ZM46.8577 42.144C46.2897 42.144 45.7857 42.012 45.3457 41.748C44.9137 41.484 44.5737 41.116 44.3257 40.644C44.0777 40.164 43.9537 39.608 43.9537 38.976C43.9537 38.336 44.0737 37.78 44.3137 37.308C44.5617 36.836 44.9057 36.468 45.3457 36.204C45.7937 35.94 46.3057 35.808 46.8817 35.808C47.4737 35.808 47.9737 35.94 48.3817 36.204C48.7977 36.468 49.1137 36.816 49.3297 37.248C49.5537 37.672 49.6657 38.14 49.6657 38.652C49.6657 38.732 49.6657 38.816 49.6657 38.904C49.6657 38.992 49.6617 39.092 49.6537 39.204H44.7097V38.424H48.6817C48.6577 37.872 48.4737 37.44 48.1297 37.128C47.7937 36.816 47.3697 36.66 46.8577 36.66C46.5137 36.66 46.1937 36.74 45.8977 36.9C45.6097 37.052 45.3777 37.28 45.2017 37.584C45.0257 37.88 44.9377 38.252 44.9377 38.7V39.036C44.9377 39.532 45.0257 39.948 45.2017 40.284C45.3857 40.62 45.6217 40.872 45.9097 41.04C46.2057 41.208 46.5217 41.292 46.8577 41.292C47.2817 41.292 47.6297 41.2 47.9017 41.016C48.1817 40.824 48.3817 40.568 48.5017 40.248H49.4977C49.4017 40.608 49.2337 40.932 48.9937 41.22C48.7537 41.508 48.4537 41.736 48.0937 41.904C47.7417 42.064 47.3297 42.144 46.8577 42.144ZM52.982 42.144C52.518 42.144 52.11 42.052 51.758 41.868C51.414 41.684 51.146 41.4 50.954 41.016C50.77 40.632 50.678 40.152 50.678 39.576V35.952H51.686V39.468C51.686 40.068 51.818 40.52 52.082 40.824C52.346 41.128 52.718 41.28 53.198 41.28C53.534 41.28 53.838 41.2 54.11 41.04C54.382 40.872 54.594 40.636 54.746 40.332C54.906 40.02 54.986 39.64 54.986 39.192V35.952H55.994V42H55.082L55.022 40.944C54.838 41.32 54.566 41.616 54.206 41.832C53.846 42.04 53.438 42.144 52.982 42.144ZM57.4249 42V35.952H58.3369L58.4089 37.104C58.5449 36.832 58.7169 36.6 58.9249 36.408C59.1409 36.216 59.3969 36.068 59.6929 35.964C59.9969 35.86 60.3409 35.808 60.7249 35.808V36.864H60.3529C60.0969 36.864 59.8529 36.9 59.6209 36.972C59.3889 37.036 59.1809 37.144 58.9969 37.296C58.8209 37.448 58.6809 37.656 58.5769 37.92C58.4809 38.176 58.4329 38.496 58.4329 38.88V42H57.4249Z" fill="white"/>
</svg>
