<svg width="69" height="52" viewBox="0 0 69 52" fill="none" xmlns="http://www.w3.org/2000/svg">
<g clip-path="url(#clip0_114_53)">
<path d="M28.26 17.4167C27.1958 16.0392 25.125 13.1667 25.125 11.625C25.125 10.6304 25.5201 9.67661 26.2233 8.97335C26.9266 8.27009 27.8804 7.875 28.875 7.875C29.8696 7.875 30.8234 8.27009 31.5266 8.97335C32.2299 9.67661 32.625 10.6304 32.625 11.625M36.375 11.625C36.375 11.1325 36.472 10.6449 36.6605 10.1899C36.8489 9.73497 37.1251 9.32157 37.4733 8.97335C37.8216 8.62513 38.235 8.34891 38.6899 8.16045C39.1449 7.972 39.6325 7.875 40.125 7.875C40.6175 7.875 41.1051 7.972 41.5601 8.16045C42.015 8.34891 42.4284 8.62513 42.7766 8.97335C43.1249 9.32157 43.4011 9.73497 43.5895 10.1899C43.778 10.6449 43.875 11.1325 43.875 11.625C43.875 13.1592 41.8158 16.0233 40.7492 17.4033M34.5 14.125C35.4946 14.125 36.4484 14.5201 37.1516 15.2233C37.8549 15.9266 38.25 16.8804 38.25 17.875C38.25 19.4758 36.01 22.5217 34.9925 23.8233C34.934 23.8981 34.8593 23.9587 34.774 24.0003C34.6886 24.0419 34.5949 24.0635 34.5 24.0635C34.4051 24.0635 34.3114 24.0419 34.226 24.0003C34.1407 23.9587 34.066 23.8981 34.0075 23.8233C32.99 22.5225 30.75 19.4758 30.75 17.875C30.75 16.8804 31.1451 15.9266 31.8483 15.2233C32.5516 14.5201 33.5054 14.125 34.5 14.125Z" stroke="white" stroke-linecap="round" stroke-linejoin="round"/>
<path d="M28.875 11.9375C28.7921 11.9375 28.7126 11.9046 28.654 11.846C28.5954 11.7874 28.5625 11.7079 28.5625 11.625C28.5625 11.5421 28.5954 11.4626 28.654 11.404C28.7126 11.3454 28.7921 11.3125 28.875 11.3125M28.875 11.9375C28.9579 11.9375 29.0374 11.9046 29.096 11.846C29.1546 11.7874 29.1875 11.7079 29.1875 11.625C29.1875 11.5421 29.1546 11.4626 29.096 11.404C29.0374 11.3454 28.9579 11.3125 28.875 11.3125M40.125 11.9375C40.0421 11.9375 39.9626 11.9046 39.904 11.846C39.8454 11.7874 39.8125 11.7079 39.8125 11.625C39.8125 11.5421 39.8454 11.4626 39.904 11.404C39.9626 11.3454 40.0421 11.3125 40.125 11.3125M40.125 11.9375C40.2079 11.9375 40.2874 11.9046 40.346 11.846C40.4046 11.7874 40.4375 11.7079 40.4375 11.625C40.4375 11.5421 40.4046 11.4626 40.346 11.404C40.2874 11.3454 40.2079 11.3125 40.125 11.3125M34.5 18.1875C34.4171 18.1875 34.3376 18.1546 34.279 18.096C34.2204 18.0374 34.1875 17.9579 34.1875 17.875C34.1875 17.7921 34.2204 17.7126 34.279 17.654C34.3376 17.5954 34.4171 17.5625 34.5 17.5625M34.5 18.1875C34.5829 18.1875 34.6624 18.1546 34.721 18.096C34.7796 18.0374 34.8125 17.9579 34.8125 17.875C34.8125 17.7921 34.7796 17.7126 34.721 17.654C34.6624 17.5954 34.5829 17.5625 34.5 17.5625" stroke="white" stroke-width="1.5"/>
</g>
<path d="M11.5662 42V33.6H14.0382C15.0222 33.6 15.8302 33.772 16.4622 34.116C17.1022 34.452 17.5742 34.936 17.8782 35.568C18.1902 36.192 18.3462 36.944 18.3462 37.824C18.3462 38.688 18.1902 39.432 17.8782 40.056C17.5742 40.68 17.1022 41.16 16.4622 41.496C15.8302 41.832 15.0222 42 14.0382 42H11.5662ZM12.5742 41.16H14.0142C14.8302 41.16 15.4782 41.028 15.9582 40.764C16.4382 40.492 16.7822 40.108 16.9902 39.612C17.1982 39.108 17.3022 38.512 17.3022 37.824C17.3022 37.12 17.1982 36.516 16.9902 36.012C16.7822 35.508 16.4382 35.12 15.9582 34.848C15.4782 34.576 14.8302 34.44 14.0142 34.44H12.5742V41.16ZM19.6239 42V35.952H20.6319V42H19.6239ZM20.1279 34.668C19.9279 34.668 19.7599 34.604 19.6239 34.476C19.4959 34.34 19.4319 34.172 19.4319 33.972C19.4319 33.772 19.4959 33.612 19.6239 33.492C19.7599 33.364 19.9279 33.3 20.1279 33.3C20.3199 33.3 20.4839 33.364 20.6199 33.492C20.7559 33.612 20.8239 33.772 20.8239 33.972C20.8239 34.172 20.7559 34.34 20.6199 34.476C20.4839 34.604 20.3199 34.668 20.1279 34.668ZM24.4507 42.144C23.9467 42.144 23.5067 42.06 23.1307 41.892C22.7627 41.724 22.4667 41.492 22.2427 41.196C22.0267 40.892 21.8947 40.536 21.8467 40.128H22.8787C22.9187 40.336 23.0027 40.528 23.1307 40.704C23.2587 40.88 23.4307 41.024 23.6467 41.136C23.8707 41.24 24.1427 41.292 24.4627 41.292C24.7427 41.292 24.9747 41.252 25.1587 41.172C25.3427 41.084 25.4787 40.968 25.5667 40.824C25.6627 40.68 25.7107 40.524 25.7107 40.356C25.7107 40.108 25.6507 39.92 25.5307 39.792C25.4187 39.664 25.2507 39.564 25.0267 39.492C24.8027 39.412 24.5307 39.344 24.2107 39.288C23.9467 39.24 23.6867 39.176 23.4307 39.096C23.1747 39.016 22.9467 38.912 22.7467 38.784C22.5467 38.648 22.3867 38.484 22.2667 38.292C22.1547 38.1 22.0987 37.864 22.0987 37.584C22.0987 37.24 22.1867 36.936 22.3627 36.672C22.5387 36.4 22.7907 36.188 23.1187 36.036C23.4547 35.884 23.8427 35.808 24.2827 35.808C24.9307 35.808 25.4547 35.964 25.8547 36.276C26.2547 36.588 26.4907 37.04 26.5627 37.632H25.5667C25.5267 37.328 25.3947 37.092 25.1707 36.924C24.9547 36.748 24.6547 36.66 24.2707 36.66C23.8947 36.66 23.6067 36.736 23.4067 36.888C23.2147 37.04 23.1187 37.24 23.1187 37.488C23.1187 37.648 23.1707 37.792 23.2747 37.92C23.3867 38.04 23.5467 38.144 23.7547 38.232C23.9707 38.32 24.2347 38.392 24.5467 38.448C24.9467 38.52 25.3107 38.616 25.6387 38.736C25.9667 38.856 26.2307 39.036 26.4307 39.276C26.6387 39.508 26.7427 39.84 26.7427 40.272C26.7427 40.648 26.6467 40.976 26.4547 41.256C26.2707 41.536 26.0067 41.756 25.6627 41.916C25.3187 42.068 24.9147 42.144 24.4507 42.144ZM27.9541 44.64V35.952H28.8661L28.9501 36.936C29.0781 36.744 29.2421 36.564 29.4421 36.396C29.6421 36.22 29.8821 36.08 30.1621 35.976C30.4421 35.864 30.7621 35.808 31.1221 35.808C31.7141 35.808 32.2261 35.948 32.6581 36.228C33.0981 36.508 33.4381 36.888 33.6781 37.368C33.9261 37.84 34.0501 38.38 34.0501 38.988C34.0501 39.596 33.9261 40.14 33.6781 40.62C33.4381 41.092 33.0981 41.464 32.6581 41.736C32.2181 42.008 31.7021 42.144 31.1101 42.144C30.6221 42.144 30.1901 42.044 29.8141 41.844C29.4461 41.644 29.1621 41.364 28.9621 41.004V44.64H27.9541ZM31.0021 41.268C31.3941 41.268 31.7421 41.172 32.0461 40.98C32.3501 40.788 32.5861 40.524 32.7541 40.188C32.9301 39.844 33.0181 39.44 33.0181 38.976C33.0181 38.52 32.9301 38.12 32.7541 37.776C32.5861 37.432 32.3501 37.164 32.0461 36.972C31.7421 36.78 31.3941 36.684 31.0021 36.684C30.6021 36.684 30.2501 36.78 29.9461 36.972C29.6421 37.164 29.4061 37.432 29.2381 37.776C29.0701 38.12 28.9861 38.52 28.9861 38.976C28.9861 39.44 29.0701 39.844 29.2381 40.188C29.4061 40.524 29.6421 40.788 29.9461 40.98C30.2501 41.172 30.6021 41.268 31.0021 41.268ZM37.1939 42.144C36.7059 42.144 36.2979 42.06 35.9699 41.892C35.6419 41.716 35.3979 41.488 35.2379 41.208C35.0779 40.92 34.9979 40.608 34.9979 40.272C34.9979 39.864 35.1019 39.52 35.3099 39.24C35.5259 38.952 35.8259 38.736 36.2099 38.592C36.6019 38.44 37.0619 38.364 37.5899 38.364H39.1859C39.1859 37.988 39.1259 37.676 39.0059 37.428C38.8939 37.172 38.7259 36.98 38.5019 36.852C38.2859 36.724 38.0139 36.66 37.6859 36.66C37.3019 36.66 36.9699 36.756 36.6899 36.948C36.4099 37.14 36.2379 37.424 36.1739 37.8H35.1419C35.1899 37.368 35.3339 37.008 35.5739 36.72C35.8219 36.424 36.1339 36.2 36.5099 36.048C36.8859 35.888 37.2779 35.808 37.6859 35.808C38.2459 35.808 38.7099 35.912 39.0779 36.12C39.4539 36.32 39.7339 36.604 39.9179 36.972C40.1019 37.332 40.1939 37.76 40.1939 38.256V42H39.2939L39.2339 40.932C39.1539 41.1 39.0499 41.26 38.9219 41.412C38.8019 41.556 38.6579 41.684 38.4899 41.796C38.3219 41.9 38.1299 41.984 37.9139 42.048C37.7059 42.112 37.4659 42.144 37.1939 42.144ZM37.3499 41.292C37.6299 41.292 37.8819 41.236 38.1059 41.124C38.3379 41.004 38.5339 40.844 38.6939 40.644C38.8539 40.436 38.9739 40.208 39.0539 39.96C39.1419 39.712 39.1859 39.452 39.1859 39.18V39.144H37.6739C37.2819 39.144 36.9659 39.192 36.7259 39.288C36.4859 39.376 36.3139 39.504 36.2099 39.672C36.1059 39.832 36.0539 40.016 36.0539 40.224C36.0539 40.44 36.1019 40.628 36.1979 40.788C36.3019 40.948 36.4499 41.072 36.6419 41.16C36.8419 41.248 37.0779 41.292 37.3499 41.292ZM43.7251 42C43.3651 42 43.0531 41.944 42.7891 41.832C42.5251 41.72 42.3211 41.532 42.1771 41.268C42.0411 40.996 41.9731 40.632 41.9731 40.176V36.804H40.9171V35.952H41.9731L42.1051 34.488H42.9811V35.952H44.7331V36.804H42.9811V40.176C42.9811 40.552 43.0571 40.808 43.2091 40.944C43.3611 41.072 43.6291 41.136 44.0131 41.136H44.6611V42H43.7251ZM48.3683 42.144C47.8003 42.144 47.2883 42.012 46.8323 41.748C46.3843 41.484 46.0323 41.116 45.7763 40.644C45.5203 40.164 45.3923 39.612 45.3923 38.988C45.3923 38.348 45.5203 37.792 45.7763 37.32C46.0323 36.848 46.3843 36.48 46.8323 36.216C47.2883 35.944 47.8003 35.808 48.3683 35.808C49.0883 35.808 49.6883 35.996 50.1683 36.372C50.6483 36.74 50.9523 37.236 51.0803 37.86H50.0483C49.9683 37.484 49.7723 37.192 49.4603 36.984C49.1483 36.776 48.7803 36.672 48.3563 36.672C48.0123 36.672 47.6923 36.76 47.3963 36.936C47.1003 37.104 46.8643 37.36 46.6883 37.704C46.5123 38.048 46.4243 38.472 46.4243 38.976C46.4243 39.352 46.4763 39.688 46.5803 39.984C46.6843 40.272 46.8243 40.512 47.0003 40.704C47.1763 40.896 47.3803 41.044 47.6123 41.148C47.8523 41.244 48.1003 41.292 48.3563 41.292C48.6443 41.292 48.9043 41.248 49.1363 41.16C49.3683 41.064 49.5643 40.924 49.7243 40.74C49.8843 40.556 49.9923 40.34 50.0483 40.092H51.0803C50.9523 40.7 50.6443 41.196 50.1563 41.58C49.6763 41.956 49.0803 42.144 48.3683 42.144ZM52.2715 42V33.36H53.2795V36.972C53.4795 36.612 53.7595 36.328 54.1195 36.12C54.4875 35.912 54.8875 35.808 55.3195 35.808C55.7835 35.808 56.1875 35.904 56.5315 36.096C56.8755 36.28 57.1395 36.564 57.3235 36.948C57.5075 37.332 57.5995 37.816 57.5995 38.4V42H56.6035V38.508C56.6035 37.9 56.4755 37.444 56.2195 37.14C55.9635 36.828 55.5915 36.672 55.1035 36.672C54.7595 36.672 54.4475 36.756 54.1675 36.924C53.8955 37.092 53.6795 37.332 53.5195 37.644C53.3595 37.956 53.2795 38.34 53.2795 38.796V42H52.2715Z" fill="white"/>
<defs>
<clipPath id="clip0_114_53">
<rect width="20" height="20" fill="white" transform="translate(24.5 6)"/>
</clipPath>
</defs>
</svg>
