<svg width="22" height="22" viewBox="0 0 22 22" fill="none" xmlns="http://www.w3.org/2000/svg">
<path fill-rule="evenodd" clip-rule="evenodd" d="M12.2 1.39922C12.2 1.08096 12.0736 0.775734 11.8485 0.550691C11.6235 0.325647 11.3183 0.199219 11 0.199219C10.6817 0.199219 10.3765 0.325647 10.1515 0.550691C9.92643 0.775734 9.8 1.08096 9.8 1.39922V2.59922C8.52696 2.59922 7.30606 3.10493 6.40589 4.00511C5.50571 4.90528 5 6.12618 5 7.39922C5 8.67226 5.50571 9.89316 6.40589 10.7933C7.30606 11.6935 8.52696 12.1992 9.8 12.1992V16.9992C9.30356 16.9995 8.81926 16.8458 8.41382 16.5593C8.00839 16.2728 7.70176 15.8676 7.5362 15.3996C7.42607 15.1051 7.20472 14.8655 6.91977 14.7325C6.63482 14.5995 6.30904 14.5837 6.01253 14.6884C5.71602 14.7931 5.47247 15.0101 5.33428 15.2925C5.19609 15.575 5.1743 15.9004 5.2736 16.1988C5.60446 17.1349 6.21743 17.9453 7.02809 18.5185C7.83874 19.0917 8.80718 19.3994 9.8 19.3992V20.5992C9.8 20.9175 9.92643 21.2227 10.1515 21.4477C10.3765 21.6728 10.6817 21.7992 11 21.7992C11.3183 21.7992 11.6235 21.6728 11.8485 21.4477C12.0736 21.2227 12.2 20.9175 12.2 20.5992V19.3992C13.473 19.3992 14.6939 18.8935 15.5941 17.9933C16.4943 17.0932 17 15.8723 17 14.5992C17 13.3262 16.4943 12.1053 15.5941 11.2051C14.6939 10.3049 13.473 9.79922 12.2 9.79922V4.99922C12.6964 4.99897 13.1807 5.15268 13.5862 5.43916C13.9916 5.72564 14.2982 6.1308 14.4638 6.59882C14.5739 6.89337 14.7953 7.13292 15.0802 7.26593C15.3652 7.39894 15.691 7.41478 15.9875 7.31005C16.284 7.20531 16.5275 6.98837 16.6657 6.7059C16.8039 6.42342 16.8257 6.09799 16.7264 5.79962C16.3955 4.86355 15.7826 4.05311 14.9719 3.47993C14.1613 2.90676 13.1928 2.59906 12.2 2.59922V1.39922ZM9.8 4.99922C9.16348 4.99922 8.55303 5.25207 8.10294 5.70216C7.65286 6.15225 7.4 6.7627 7.4 7.39922C7.4 8.03574 7.65286 8.64619 8.10294 9.09627C8.55303 9.54636 9.16348 9.79922 9.8 9.79922V4.99922ZM12.2 12.1992V16.9992C12.8365 16.9992 13.447 16.7464 13.8971 16.2963C14.3471 15.8462 14.6 15.2357 14.6 14.5992C14.6 13.9627 14.3471 13.3522 13.8971 12.9022C13.447 12.4521 12.8365 12.1992 12.2 12.1992Z" fill="#444444"/>
</svg>
