<svg width="40" height="40" viewBox="0 0 40 40" fill="none" xmlns="http://www.w3.org/2000/svg">
<path d="M0 6C0 2.68629 2.68629 0 6 0H34C37.3137 0 40 2.68629 40 6V34C40 37.3137 37.3137 40 34 40H6C2.68629 40 0 37.3137 0 34V6Z" fill="white"/>
<path d="M12.5005 26.7676H27.4995L27.6382 26.7803C27.7739 26.8065 27.9005 26.8707 28.0024 26.9668C28.1382 27.095 28.2199 27.2706 28.231 27.457C28.2419 27.6436 28.181 27.8274 28.061 27.9707C27.9411 28.114 27.7711 28.2064 27.5854 28.2285L27.5005 28.2334H12.5005C12.3137 28.2332 12.1334 28.1623 11.9976 28.0342C11.8618 27.906 11.7801 27.7304 11.769 27.5439C11.7581 27.3574 11.819 27.1736 11.939 27.0303C12.0588 26.8871 12.2282 26.7937 12.4136 26.7715L12.5005 26.7666V26.7676ZM16.4653 13.2197C16.5621 13.2347 16.6555 13.2649 16.7427 13.3086L16.8276 13.3564L16.9194 13.4229V13.4238L22.0728 17.666L22.1089 17.6953L22.1548 17.6875L25.3481 17.1104C25.8883 17.0129 26.4447 17.0558 26.9634 17.2354C27.4174 17.3926 27.8295 17.6503 28.1694 17.9873L28.311 18.1367C28.6721 18.5436 28.82 19.0756 28.645 19.5928C28.5073 20.0008 28.2769 20.3716 27.9722 20.6758C27.6681 20.9792 27.2982 21.2086 26.8911 21.3457L26.7212 21.3975L14.1577 24.7637C14.0163 24.8015 13.867 24.8012 13.7261 24.7617C13.5869 24.7228 13.4604 24.6476 13.3599 24.5439H13.3608L13.2886 24.459L10.645 20.9258L10.5981 20.8545C10.5555 20.7813 10.525 20.7008 10.5093 20.6172C10.4884 20.5057 10.4935 20.3905 10.5239 20.2812C10.5545 20.172 10.6104 20.0709 10.686 19.9863C10.7602 19.9035 10.8519 19.8385 10.9546 19.7959L11.0474 19.7646L12.939 19.2578C13.0717 19.2222 13.2109 19.2164 13.3462 19.2402C13.4477 19.2581 13.5453 19.2925 13.6353 19.3418L13.7231 19.3955L13.8101 19.4639L14.4692 20.043L14.5151 20.083L14.5718 20.0615L16.5669 19.2812L16.6929 19.2324L16.6099 19.126L13.3872 15.0322C13.316 14.9417 13.2669 14.8355 13.2437 14.7227C13.2205 14.6096 13.2235 14.4923 13.2534 14.3809C13.2834 14.2694 13.3388 14.1663 13.4155 14.0801C13.4909 13.9954 13.585 13.9295 13.6899 13.8867L13.7778 13.8564L13.7788 13.8574L16.0776 13.2402C16.2039 13.2065 16.3362 13.1998 16.4653 13.2197ZM16.146 14.7402L15.3667 14.9492L15.2202 14.9883L15.314 15.1074L18.4497 19.0938C18.7369 19.4584 18.6197 19.9851 18.2251 20.2012L18.1372 20.2432L14.6372 21.6094C14.5251 21.6532 14.4033 21.6697 14.2837 21.6562C14.1658 21.6429 14.0531 21.6011 13.9546 21.5352L13.8735 21.4727H13.8726L13.0884 20.7822L13.0483 20.7471L12.9966 20.7607L12.604 20.8662L12.4614 20.9053L12.5503 21.0225L14.1626 23.1787L14.2026 23.2334L14.2681 23.2158L26.3423 19.9805C26.7424 19.8732 27.0684 19.5865 27.2261 19.207L27.2495 19.1494L27.2075 19.1025C27.0269 18.9012 26.8021 18.7443 26.5503 18.6455C26.2985 18.5468 26.0267 18.5082 25.7573 18.5332L25.7534 18.5342L25.6138 18.5527L25.6099 18.5537L22.0396 19.1992C21.9029 19.2245 21.7627 19.2098 21.6353 19.1592L21.5122 19.0957L21.4321 19.0371L16.2368 14.7598L16.2095 14.7373H16.1587L16.146 14.7402Z" fill="#444444" stroke="white" stroke-width="0.2"/>
</svg>
