<svg width="22" height="22" viewBox="0 0 22 22" fill="none" xmlns="http://www.w3.org/2000/svg">
<path d="M11.1999 11.9C12.691 11.9 13.8999 10.6912 13.8999 9.2C13.8999 7.70883 12.691 6.5 11.1999 6.5C9.70871 6.5 8.49988 7.70883 8.49988 9.2C8.49988 10.6912 9.70871 11.9 11.1999 11.9Z" stroke="#444444" stroke-width="1.4" stroke-linecap="round" stroke-linejoin="round"/>
<path d="M11.2 2C9.29044 2 7.45909 2.75857 6.10883 4.10883C4.75857 5.45909 4 7.29044 4 9.2C4 10.9028 4.3618 12.017 5.35 13.25L11.2 20L17.05 13.25C18.0382 12.017 18.4 10.9028 18.4 9.2C18.4 7.29044 17.6414 5.45909 16.2912 4.10883C14.9409 2.75857 13.1096 2 11.2 2Z" stroke="#444444" stroke-width="1.4" stroke-linecap="round" stroke-linejoin="round"/>
</svg>
