<svg width="12" height="3" viewBox="0 0 12 3" fill="none" xmlns="http://www.w3.org/2000/svg">
<path d="M1.33333 0C1.68696 0 2.02609 0.140476 2.27614 0.390524C2.52619 0.640573 2.66667 0.979711 2.66667 1.33333C2.66667 1.68695 2.52619 2.02609 2.27614 2.27614C2.02609 2.52619 1.68696 2.66667 1.33333 2.66667C0.979711 2.66667 0.640573 2.52619 0.390524 2.27614C0.140476 2.02609 0 1.68695 0 1.33333C0 0.979711 0.140476 0.640573 0.390524 0.390524C0.640573 0.140476 0.979711 0 1.33333 0ZM6 0C6.35362 0 6.69276 0.140476 6.94281 0.390524C7.19286 0.640573 7.33333 0.979711 7.33333 1.33333C7.33333 1.68695 7.19286 2.02609 6.94281 2.27614C6.69276 2.52619 6.35362 2.66667 6 2.66667C5.64638 2.66667 5.30724 2.52619 5.05719 2.27614C4.80714 2.02609 4.66667 1.68695 4.66667 1.33333C4.66667 0.979711 4.80714 0.640573 5.05719 0.390524C5.30724 0.140476 5.64638 0 6 0ZM10.6667 0C11.0203 0 11.3594 0.140476 11.6095 0.390524C11.8595 0.640573 12 0.979711 12 1.33333C12 1.68695 11.8595 2.02609 11.6095 2.27614C11.3594 2.52619 11.0203 2.66667 10.6667 2.66667C10.313 2.66667 9.97391 2.52619 9.72386 2.27614C9.47381 2.02609 9.33333 1.68695 9.33333 1.33333C9.33333 0.979711 9.47381 0.640573 9.72386 0.390524C9.97391 0.140476 10.313 0 10.6667 0Z" fill="black"/>
</svg>
