<svg width="38" height="38" viewBox="0 0 38 38" fill="none" xmlns="http://www.w3.org/2000/svg">
<rect x="0.5" y="0.5" width="37" height="37" rx="18.5" stroke="#D9D9D9"/>
<path d="M19.001 26C20.5542 25.9998 22.0632 25.483 23.2904 24.5311C24.5176 23.5791 25.3934 22.2461 25.7799 20.7418C26.1663 19.2374 26.0415 17.6473 25.4251 16.2217C24.8086 14.7962 23.7356 13.6161 22.3748 12.8673C21.0141 12.1185 19.443 11.8435 17.9088 12.0856C16.3746 12.3277 14.9646 13.0732 13.9006 14.2046C12.8366 15.3361 12.1791 16.7893 12.0316 18.3354C11.8842 19.8816 12.2551 21.4328 13.086 22.745L12.001 26L15.256 24.915C16.3757 25.6256 17.6749 26.002 19.001 26Z" stroke="black" stroke-width="1.4" stroke-linecap="round" stroke-linejoin="round"/>
</svg>
