<svg width="22" height="22" viewBox="0 0 22 22" fill="none" xmlns="http://www.w3.org/2000/svg">
<path d="M3.66667 15.5827C4.67919 15.5827 5.5 14.7619 5.5 13.7493C5.5 12.7368 4.67919 11.916 3.66667 11.916C2.65414 11.916 1.83333 12.7368 1.83333 13.7493C1.83333 14.7619 2.65414 15.5827 3.66667 15.5827Z" stroke="#444444" stroke-width="1.4"/>
<path d="M17.4167 7.33333C16.4042 7.33333 15.5834 8.15414 15.5834 9.16667C15.5834 10.1792 16.4042 11 17.4167 11C18.4292 11 19.25 10.1792 19.25 9.16667C19.25 8.15414 18.4292 7.33333 17.4167 7.33333Z" stroke="#444444" stroke-width="1.4"/>
<path d="M16.5 10.0827L15.125 11.4577C14.1928 12.39 13.7262 12.8566 13.1661 12.9592C12.9461 13.0005 12.7206 13.0005 12.5006 12.9592C11.9405 12.8566 11.474 12.3909 10.5417 11.4577C9.60946 10.5246 9.14287 10.0589 8.58279 9.95623C8.36282 9.91563 8.13727 9.91563 7.91729 9.95623C7.35721 10.0589 6.89062 10.5246 5.95837 11.4577L4.58337 12.8327" stroke="#444444" stroke-width="1.4"/>
</svg>
