<svg width="22" height="22" viewBox="0 0 22 22" fill="none" xmlns="http://www.w3.org/2000/svg">
<path d="M17.2833 3.30482C17.3755 3.20946 17.4856 3.13339 17.6074 3.08106C17.7293 3.02873 17.8603 3.00119 17.9929 3.00004C18.1254 2.99889 18.2569 3.02415 18.3796 3.07435C18.5023 3.12456 18.6138 3.1987 18.7076 3.29244C18.8013 3.38619 18.8754 3.49767 18.9256 3.62038C18.9759 3.74309 19.0011 3.87457 19 4.00714C18.9988 4.13972 18.9713 4.27074 18.9189 4.39255C18.8666 4.51437 18.7905 4.62455 18.6952 4.71665L4.71665 18.6952C4.62455 18.7905 4.51437 18.8666 4.39255 18.9189C4.27074 18.9713 4.13972 18.9988 4.00714 19C3.87457 19.0011 3.74309 18.9759 3.62038 18.9256C3.49767 18.8754 3.38619 18.8013 3.29244 18.7076C3.1987 18.6138 3.12456 18.5023 3.07435 18.3796C3.02415 18.2569 2.99889 18.1254 3.00004 17.9929C3.00119 17.8603 3.02873 17.7293 3.08106 17.6074C3.13339 17.4856 3.20946 17.3755 3.30482 17.2833L17.2833 3.30482ZM16.9908 15.9923C16.9908 15.7275 16.8856 15.4736 16.6984 15.2863C16.5111 15.0991 16.2571 14.9939 15.9923 14.9939C15.7275 14.9939 15.4736 15.0991 15.2863 15.2863C15.0991 15.4736 14.9939 15.7275 14.9939 15.9923C14.9939 16.2571 15.0991 16.5111 15.2863 16.6984C15.4736 16.8856 15.7275 16.9908 15.9923 16.9908C16.2571 16.9908 16.5111 16.8856 16.6984 16.6984C16.8856 16.5111 16.9908 16.2571 16.9908 15.9923ZM7.00613 6.00767C7.00613 5.74286 6.90094 5.48889 6.71369 5.30165C6.52644 5.1144 6.27248 5.0092 6.00767 5.0092C5.74286 5.0092 5.48889 5.1144 5.30165 5.30165C5.1144 5.48889 5.0092 5.74286 5.0092 6.00767C5.0092 6.27248 5.1144 6.52644 5.30165 6.71369C5.48889 6.90094 5.74286 7.00613 6.00767 7.00613C6.27248 7.00613 6.52644 6.90094 6.71369 6.71369C6.90094 6.52644 7.00613 6.27248 7.00613 6.00767ZM18.9877 15.9923C18.9877 16.7868 18.6721 17.5487 18.1104 18.1104C17.5487 18.6721 16.7868 18.9877 15.9923 18.9877C15.1979 18.9877 14.436 18.6721 13.8743 18.1104C13.3125 17.5487 12.9969 16.7868 12.9969 15.9923C12.9969 15.1979 13.3125 14.436 13.8743 13.8743C14.436 13.3125 15.1979 12.9969 15.9923 12.9969C16.7868 12.9969 17.5487 13.3125 18.1104 13.8743C18.6721 14.436 18.9877 15.1979 18.9877 15.9923ZM9.00307 6.00767C9.00307 6.40103 8.92559 6.79054 8.77506 7.15396C8.62452 7.51738 8.40388 7.84759 8.12574 8.12574C7.84759 8.40388 7.51738 8.62452 7.15396 8.77506C6.79054 8.92559 6.40103 9.00307 6.00767 9.00307C5.61431 9.00307 5.2248 8.92559 4.86138 8.77506C4.49796 8.62452 4.16775 8.40388 3.8896 8.12574C3.61145 7.84759 3.39081 7.51738 3.24028 7.15396C3.08975 6.79054 3.01227 6.40103 3.01227 6.00767C3.01227 5.21324 3.32786 4.45135 3.8896 3.8896C4.45135 3.32786 5.21324 3.01227 6.00767 3.01227C6.8021 3.01227 7.56399 3.32786 8.12574 3.8896C8.68748 4.45135 9.00307 5.21324 9.00307 6.00767Z" fill="black"/>
</svg>
