<svg version="1.2" xmlns="http://www.w3.org/2000/svg" viewBox="0 0 69 69" width="69" height="69">
	<style>
		tspan { white-space:pre } 
		.s0 { fill: #ffffff } 
		.t1 { font-size: 56px;fill: #ffffff;font-weight: 400;font-family: "DejaVuSans", "DejaVu Sans" } 
	</style>
	<path class="s0" d="m28.07 35.54q-0.71 0-1.19-0.48-0.48-0.48-0.48-1.2v-15.28q0-0.71 0.48-1.19 0.48-0.48 1.19-0.48h8.16l4.66 4.66v12.29q0 0.72-0.48 1.2-0.48 0.48-1.19 0.48zm7.64-13.69v-3.9h-7.64q-0.24 0-0.44 0.2-0.2 0.19-0.2 0.43v15.28q0 0.24 0.2 0.44 0.2 0.2 0.43 0.2h11.15q0.24 0 0.43-0.2 0.2-0.2 0.2-0.44v-12.01zm-2.22 10.84h1.03v-1.03h1.55q0.22 0 0.37-0.15 0.15-0.15 0.15-0.37v-3.11q0-0.22-0.15-0.36-0.15-0.15-0.37-0.15h-3.62v-2.07h4.14v-1.04h-2.07v-1.03h-1.03v1.03h-1.56q-0.22 0-0.37 0.15-0.14 0.15-0.14 0.37v3.1q0 0.23 0.14 0.37 0.15 0.15 0.37 0.15h3.62v2.07h-4.13v1.04h2.07z"/>
	<text id="Quotes" style="transform: matrix(.207,0,0,.207,15.483,53.448)">
		<tspan x="0" y="0" class="t1">Quote</tspan><tspan  y="0" class="t1">s
</tspan>
	</text>
</svg>