<svg width="69" height="52" viewBox="0 0 69 52" fill="none" xmlns="http://www.w3.org/2000/svg">
<path d="M31.375 8.5V12.25M37.625 8.5V12.25M27.625 14.125H41.375M30.75 16.625V17.875M34.5 16.625V17.875M38.25 16.625V17.875M38.25 19.125V20.375M34.5 19.125V20.375M30.75 19.125V20.375M27.625 10.375H41.375V22.875H27.625V10.375Z" stroke="white" stroke-linejoin="round"/>
<path d="M1.28836 42V33.6H4.00036C4.65636 33.6 5.19236 33.712 5.60836 33.936C6.02436 34.152 6.33236 34.444 6.53236 34.812C6.73236 35.18 6.83236 35.596 6.83236 36.06C6.83236 36.508 6.72836 36.92 6.52036 37.296C6.32036 37.672 6.00836 37.972 5.58436 38.196C5.16036 38.42 4.61636 38.532 3.95236 38.532H2.29636V42H1.28836ZM5.72836 42L3.88036 38.244H5.00836L6.91636 42H5.72836ZM2.29636 37.74H3.92836C4.56836 37.74 5.03636 37.584 5.33236 37.272C5.63636 36.96 5.78836 36.56 5.78836 36.072C5.78836 35.576 5.64036 35.184 5.34436 34.896C5.05636 34.6 4.58036 34.452 3.91636 34.452H2.29636V37.74ZM10.4021 42.144C9.83408 42.144 9.33008 42.012 8.89008 41.748C8.45808 41.484 8.11808 41.116 7.87008 40.644C7.62208 40.164 7.49808 39.608 7.49808 38.976C7.49808 38.336 7.61808 37.78 7.85808 37.308C8.10608 36.836 8.45008 36.468 8.89008 36.204C9.33808 35.94 9.85008 35.808 10.4261 35.808C11.0181 35.808 11.5181 35.94 11.9261 36.204C12.3421 36.468 12.6581 36.816 12.8741 37.248C13.0981 37.672 13.2101 38.14 13.2101 38.652C13.2101 38.732 13.2101 38.816 13.2101 38.904C13.2101 38.992 13.2061 39.092 13.1981 39.204H8.25408V38.424H12.2261C12.2021 37.872 12.0181 37.44 11.6741 37.128C11.3381 36.816 10.9141 36.66 10.4021 36.66C10.0581 36.66 9.73808 36.74 9.44208 36.9C9.15408 37.052 8.92208 37.28 8.74608 37.584C8.57008 37.88 8.48208 38.252 8.48208 38.7V39.036C8.48208 39.532 8.57008 39.948 8.74608 40.284C8.93008 40.62 9.16608 40.872 9.45408 41.04C9.75008 41.208 10.0661 41.292 10.4021 41.292C10.8261 41.292 11.1741 41.2 11.4461 41.016C11.7261 40.824 11.9261 40.568 12.0461 40.248H13.0421C12.9461 40.608 12.7781 40.932 12.5381 41.22C12.2981 41.508 11.9981 41.736 11.6381 41.904C11.2861 42.064 10.8741 42.144 10.4021 42.144ZM16.6104 42.144C16.1064 42.144 15.6664 42.06 15.2904 41.892C14.9224 41.724 14.6264 41.492 14.4024 41.196C14.1864 40.892 14.0544 40.536 14.0064 40.128H15.0384C15.0784 40.336 15.1624 40.528 15.2904 40.704C15.4184 40.88 15.5904 41.024 15.8064 41.136C16.0304 41.24 16.3024 41.292 16.6224 41.292C16.9024 41.292 17.1344 41.252 17.3184 41.172C17.5024 41.084 17.6384 40.968 17.7264 40.824C17.8224 40.68 17.8704 40.524 17.8704 40.356C17.8704 40.108 17.8104 39.92 17.6904 39.792C17.5784 39.664 17.4104 39.564 17.1864 39.492C16.9624 39.412 16.6904 39.344 16.3704 39.288C16.1064 39.24 15.8464 39.176 15.5904 39.096C15.3344 39.016 15.1064 38.912 14.9064 38.784C14.7064 38.648 14.5464 38.484 14.4264 38.292C14.3144 38.1 14.2584 37.864 14.2584 37.584C14.2584 37.24 14.3464 36.936 14.5224 36.672C14.6984 36.4 14.9504 36.188 15.2784 36.036C15.6144 35.884 16.0024 35.808 16.4424 35.808C17.0904 35.808 17.6144 35.964 18.0144 36.276C18.4144 36.588 18.6504 37.04 18.7224 37.632H17.7264C17.6864 37.328 17.5544 37.092 17.3304 36.924C17.1144 36.748 16.8144 36.66 16.4304 36.66C16.0544 36.66 15.7664 36.736 15.5664 36.888C15.3744 37.04 15.2784 37.24 15.2784 37.488C15.2784 37.648 15.3304 37.792 15.4344 37.92C15.5464 38.04 15.7064 38.144 15.9144 38.232C16.1304 38.32 16.3944 38.392 16.7064 38.448C17.1064 38.52 17.4704 38.616 17.7984 38.736C18.1264 38.856 18.3904 39.036 18.5904 39.276C18.7984 39.508 18.9024 39.84 18.9024 40.272C18.9024 40.648 18.8064 40.976 18.6144 41.256C18.4304 41.536 18.1664 41.756 17.8224 41.916C17.4784 42.068 17.0744 42.144 16.6104 42.144ZM22.7658 42.144C22.1978 42.144 21.6938 42.012 21.2538 41.748C20.8218 41.484 20.4818 41.116 20.2338 40.644C19.9858 40.164 19.8618 39.608 19.8618 38.976C19.8618 38.336 19.9818 37.78 20.2218 37.308C20.4698 36.836 20.8138 36.468 21.2538 36.204C21.7018 35.94 22.2138 35.808 22.7898 35.808C23.3818 35.808 23.8818 35.94 24.2898 36.204C24.7058 36.468 25.0218 36.816 25.2378 37.248C25.4618 37.672 25.5738 38.14 25.5738 38.652C25.5738 38.732 25.5738 38.816 25.5738 38.904C25.5738 38.992 25.5698 39.092 25.5618 39.204H20.6178V38.424H24.5898C24.5658 37.872 24.3818 37.44 24.0378 37.128C23.7018 36.816 23.2778 36.66 22.7658 36.66C22.4218 36.66 22.1018 36.74 21.8058 36.9C21.5178 37.052 21.2858 37.28 21.1098 37.584C20.9338 37.88 20.8458 38.252 20.8458 38.7V39.036C20.8458 39.532 20.9338 39.948 21.1098 40.284C21.2938 40.62 21.5298 40.872 21.8178 41.04C22.1138 41.208 22.4298 41.292 22.7658 41.292C23.1898 41.292 23.5378 41.2 23.8098 41.016C24.0898 40.824 24.2898 40.568 24.4098 40.248H25.4058C25.3098 40.608 25.1418 40.932 24.9018 41.22C24.6618 41.508 24.3618 41.736 24.0018 41.904C23.6498 42.064 23.2378 42.144 22.7658 42.144ZM26.6941 42V35.952H27.6061L27.6781 37.104C27.8141 36.832 27.9861 36.6 28.1941 36.408C28.4101 36.216 28.6661 36.068 28.9621 35.964C29.2661 35.86 29.6101 35.808 29.9941 35.808V36.864H29.6221C29.3661 36.864 29.1221 36.9 28.8901 36.972C28.6581 37.036 28.4501 37.144 28.2661 37.296C28.0901 37.448 27.9501 37.656 27.8461 37.92C27.7501 38.176 27.7021 38.496 27.7021 38.88V42H26.6941ZM32.6355 42L30.3435 35.952H31.3995L33.2235 41.028L35.0595 35.952H36.0915L33.7995 42H32.6355ZM38.647 42.144C38.159 42.144 37.751 42.06 37.423 41.892C37.095 41.716 36.851 41.488 36.691 41.208C36.531 40.92 36.451 40.608 36.451 40.272C36.451 39.864 36.555 39.52 36.763 39.24C36.979 38.952 37.279 38.736 37.663 38.592C38.055 38.44 38.515 38.364 39.043 38.364H40.639C40.639 37.988 40.579 37.676 40.459 37.428C40.347 37.172 40.179 36.98 39.955 36.852C39.739 36.724 39.467 36.66 39.139 36.66C38.755 36.66 38.423 36.756 38.143 36.948C37.863 37.14 37.691 37.424 37.627 37.8H36.595C36.643 37.368 36.787 37.008 37.027 36.72C37.275 36.424 37.587 36.2 37.963 36.048C38.339 35.888 38.731 35.808 39.139 35.808C39.699 35.808 40.163 35.912 40.531 36.12C40.907 36.32 41.187 36.604 41.371 36.972C41.555 37.332 41.647 37.76 41.647 38.256V42H40.747L40.687 40.932C40.607 41.1 40.503 41.26 40.375 41.412C40.255 41.556 40.111 41.684 39.943 41.796C39.775 41.9 39.583 41.984 39.367 42.048C39.159 42.112 38.919 42.144 38.647 42.144ZM38.803 41.292C39.083 41.292 39.335 41.236 39.559 41.124C39.791 41.004 39.987 40.844 40.147 40.644C40.307 40.436 40.427 40.208 40.507 39.96C40.595 39.712 40.639 39.452 40.639 39.18V39.144H39.127C38.735 39.144 38.419 39.192 38.179 39.288C37.939 39.376 37.767 39.504 37.663 39.672C37.559 39.832 37.507 40.016 37.507 40.224C37.507 40.44 37.555 40.628 37.651 40.788C37.755 40.948 37.903 41.072 38.095 41.16C38.295 41.248 38.531 41.292 38.803 41.292ZM45.1783 42C44.8183 42 44.5063 41.944 44.2423 41.832C43.9783 41.72 43.7743 41.532 43.6303 41.268C43.4943 40.996 43.4263 40.632 43.4263 40.176V36.804H42.3703V35.952H43.4263L43.5583 34.488H44.4343V35.952H46.1863V36.804H44.4343V40.176C44.4343 40.552 44.5103 40.808 44.6623 40.944C44.8143 41.072 45.0823 41.136 45.4663 41.136H46.1143V42H45.1783ZM47.3575 42V35.952H48.3655V42H47.3575ZM47.8615 34.668C47.6615 34.668 47.4935 34.604 47.3575 34.476C47.2295 34.34 47.1655 34.172 47.1655 33.972C47.1655 33.772 47.2295 33.612 47.3575 33.492C47.4935 33.364 47.6615 33.3 47.8615 33.3C48.0535 33.3 48.2175 33.364 48.3535 33.492C48.4895 33.612 48.5575 33.772 48.5575 33.972C48.5575 34.172 48.4895 34.34 48.3535 34.476C48.2175 34.604 48.0535 34.668 47.8615 34.668ZM52.6043 42.144C52.0443 42.144 51.5403 42.016 51.0923 41.76C50.6443 41.496 50.2923 41.128 50.0363 40.656C49.7803 40.176 49.6523 39.62 49.6523 38.988C49.6523 38.34 49.7803 37.78 50.0363 37.308C50.3003 36.828 50.6563 36.46 51.1043 36.204C51.5603 35.94 52.0683 35.808 52.6283 35.808C53.2043 35.808 53.7123 35.94 54.1523 36.204C54.6003 36.46 54.9523 36.828 55.2083 37.308C55.4723 37.78 55.6043 38.336 55.6043 38.976C55.6043 39.616 55.4723 40.176 55.2083 40.656C54.9443 41.128 54.5883 41.496 54.1403 41.76C53.6923 42.016 53.1803 42.144 52.6043 42.144ZM52.6163 41.28C52.9603 41.28 53.2803 41.196 53.5763 41.028C53.8723 40.852 54.1123 40.592 54.2963 40.248C54.4803 39.904 54.5723 39.48 54.5723 38.976C54.5723 38.464 54.4803 38.04 54.2963 37.704C54.1203 37.36 53.8843 37.104 53.5883 36.936C53.3003 36.76 52.9803 36.672 52.6283 36.672C52.2923 36.672 51.9723 36.76 51.6683 36.936C51.3723 37.104 51.1323 37.36 50.9483 37.704C50.7723 38.04 50.6843 38.464 50.6843 38.976C50.6843 39.48 50.7723 39.904 50.9483 40.248C51.1323 40.592 51.3683 40.852 51.6563 41.028C51.9523 41.196 52.2723 41.28 52.6163 41.28ZM56.7776 42V35.952H57.6896L57.7376 37.008C57.9296 36.632 58.2016 36.34 58.5536 36.132C58.9136 35.916 59.3216 35.808 59.7776 35.808C60.2496 35.808 60.6576 35.904 61.0016 36.096C61.3456 36.28 61.6136 36.564 61.8056 36.948C61.9976 37.324 62.0936 37.804 62.0936 38.388V42H61.0856V38.496C61.0856 37.888 60.9496 37.432 60.6776 37.128C60.4136 36.824 60.0376 36.672 59.5496 36.672C59.2136 36.672 58.9136 36.756 58.6496 36.924C58.3856 37.084 58.1736 37.32 58.0136 37.632C57.8616 37.936 57.7856 38.316 57.7856 38.772V42H56.7776ZM65.7082 42.144C65.2042 42.144 64.7642 42.06 64.3882 41.892C64.0202 41.724 63.7242 41.492 63.5002 41.196C63.2842 40.892 63.1522 40.536 63.1042 40.128H64.1362C64.1762 40.336 64.2602 40.528 64.3882 40.704C64.5162 40.88 64.6882 41.024 64.9042 41.136C65.1282 41.24 65.4002 41.292 65.7202 41.292C66.0002 41.292 66.2322 41.252 66.4162 41.172C66.6002 41.084 66.7362 40.968 66.8242 40.824C66.9202 40.68 66.9682 40.524 66.9682 40.356C66.9682 40.108 66.9082 39.92 66.7882 39.792C66.6762 39.664 66.5082 39.564 66.2842 39.492C66.0602 39.412 65.7882 39.344 65.4682 39.288C65.2042 39.24 64.9442 39.176 64.6882 39.096C64.4322 39.016 64.2042 38.912 64.0042 38.784C63.8042 38.648 63.6442 38.484 63.5242 38.292C63.4122 38.1 63.3562 37.864 63.3562 37.584C63.3562 37.24 63.4442 36.936 63.6202 36.672C63.7962 36.4 64.0482 36.188 64.3762 36.036C64.7122 35.884 65.1002 35.808 65.5402 35.808C66.1882 35.808 66.7122 35.964 67.1122 36.276C67.5122 36.588 67.7482 37.04 67.8202 37.632H66.8242C66.7842 37.328 66.6522 37.092 66.4282 36.924C66.2122 36.748 65.9122 36.66 65.5282 36.66C65.1522 36.66 64.8642 36.736 64.6642 36.888C64.4722 37.04 64.3762 37.24 64.3762 37.488C64.3762 37.648 64.4282 37.792 64.5322 37.92C64.6442 38.04 64.8042 38.144 65.0122 38.232C65.2282 38.32 65.4922 38.392 65.8042 38.448C66.2042 38.52 66.5682 38.616 66.8962 38.736C67.2242 38.856 67.4882 39.036 67.6882 39.276C67.8962 39.508 68.0002 39.84 68.0002 40.272C68.0002 40.648 67.9042 40.976 67.7122 41.256C67.5282 41.536 67.2642 41.756 66.9202 41.916C66.5762 42.068 66.1722 42.144 65.7082 42.144Z" fill="white"/>
</svg>
