<svg width="22" height="22" viewBox="0 0 22 22" fill="none" xmlns="http://www.w3.org/2000/svg">
<path d="M10.0837 19.8916L10.0837 17.875L5.95874 17.875C3.43801 17.875 1.37493 15.8127 1.37476 13.292L1.37476 8.70801C1.37493 6.18732 3.43801 4.125 5.95874 4.125L5.95874 5.95801C4.44635 5.95801 3.20892 7.19566 3.20874 8.70801L3.20874 13.292C3.20892 14.8043 4.44635 16.042 5.95874 16.042L10.0837 16.042L10.0837 14.0254L13.9333 16.959L10.0837 19.8916ZM20.6248 13.292C20.6246 15.8127 18.5624 17.875 16.0417 17.875L16.0417 16.042C17.5541 16.0419 18.7916 14.8043 18.7917 13.292L18.7917 8.70801C18.7916 7.19568 17.5541 5.95805 16.0417 5.95801L11.9167 5.95801L11.9167 7.97363L8.06616 5.04102L11.9167 2.10742L11.9167 4.125L16.0417 4.125C18.5624 4.12504 20.6246 6.18735 20.6248 8.70801L20.6248 13.292Z" fill="#444444"/>
<path d="M10.0837 19.8916L9.88374 19.8916L9.88374 20.2954L10.2049 20.0507L10.0837 19.8916ZM10.0837 17.875L10.2837 17.875L10.2837 17.675L10.0837 17.675L10.0837 17.875ZM5.95874 17.875L5.95874 17.675L5.95874 17.875ZM1.37476 13.292L1.17475 13.292L1.17475 13.292L1.37476 13.292ZM1.37476 8.70801L1.17475 8.70799L1.17475 8.70801L1.37476 8.70801ZM5.95874 4.125L6.15874 4.125L6.15874 3.925L5.95874 3.925L5.95874 4.125ZM5.95874 5.95801L5.95874 6.15801L6.15874 6.15801L6.15874 5.95801L5.95874 5.95801ZM3.20874 8.70801L3.00874 8.70798L3.00874 8.70801L3.20874 8.70801ZM3.20874 13.292L3.00874 13.292L3.00874 13.292L3.20874 13.292ZM5.95874 16.042L5.95874 15.842L5.95874 16.042ZM10.0837 16.042L10.0837 16.242L10.2837 16.242L10.2837 16.042L10.0837 16.042ZM10.0837 14.0254L10.205 13.8663L9.88374 13.6215L9.88374 14.0254L10.0837 14.0254ZM13.9333 16.959L14.0545 17.1181L14.2634 16.959L14.0546 16.7999L13.9333 16.959ZM20.6248 13.292L20.8248 13.292L20.8248 13.292L20.6248 13.292ZM16.0417 17.875L15.8417 17.875L15.8417 18.075L16.0418 18.075L16.0417 17.875ZM16.0417 16.042L16.0417 15.842L15.8417 15.842L15.8417 16.042L16.0417 16.042ZM18.7917 13.292L18.9917 13.292L18.9917 13.292L18.7917 13.292ZM18.7917 8.70801L18.9917 8.70801L18.9917 8.70799L18.7917 8.70801ZM16.0417 5.95801L16.0418 5.75801L16.0417 5.75801L16.0417 5.95801ZM11.9167 5.95801L11.9167 5.75801L11.7167 5.75801L11.7167 5.95801L11.9167 5.95801ZM11.9167 7.97363L11.7956 8.13274L12.1167 8.37735L12.1167 7.97363L11.9167 7.97363ZM8.06616 5.04102L7.94496 4.88193L7.7361 5.04104L7.94498 5.20013L8.06616 5.04102ZM11.9167 2.10742L12.1167 2.10742L12.1167 1.70362L11.7955 1.94833L11.9167 2.10742ZM11.9167 4.125L11.7167 4.125L11.7167 4.325L11.9167 4.325L11.9167 4.125ZM16.0417 4.125L16.0418 3.925L16.0417 3.925L16.0417 4.125ZM20.6248 8.70801L20.8248 8.70801L20.8248 8.70799L20.6248 8.70801ZM10.0837 19.8916L10.2837 19.8916L10.2837 17.875L10.0837 17.875L9.88374 17.875L9.88374 19.8916L10.0837 19.8916ZM10.0837 17.875L10.0837 17.675L5.95874 17.675L5.95874 17.875L5.95874 18.075L10.0837 18.075L10.0837 17.875ZM5.95874 17.875L5.95874 17.675C3.54843 17.675 1.57492 15.7022 1.57476 13.292L1.37476 13.292L1.17475 13.292C1.17494 15.9232 3.3276 18.075 5.95874 18.075L5.95874 17.875ZM1.37476 13.292L1.57476 13.292L1.57476 8.70801L1.37476 8.70801L1.17475 8.70801L1.17475 13.292L1.37476 13.292ZM1.37476 8.70801L1.57476 8.70802C1.57493 6.29782 3.54843 4.325 5.95874 4.325L5.95874 4.125L5.95874 3.925C3.3276 3.925 1.17494 6.07682 1.17475 8.70799L1.37476 8.70801ZM5.95874 4.125L5.75874 4.125L5.75874 5.95801L5.95874 5.95801L6.15874 5.95801L6.15874 4.125L5.95874 4.125ZM5.95874 5.95801L5.95874 5.75801C4.33587 5.75801 3.00893 7.08522 3.00874 8.70798L3.20874 8.70801L3.40874 8.70803C3.4089 7.30609 4.55683 6.15801 5.95874 6.15801L5.95874 5.95801ZM3.20874 8.70801L3.00874 8.70801L3.00874 13.292L3.20874 13.292L3.40874 13.292L3.40874 8.70801L3.20874 8.70801ZM3.20874 13.292L3.00874 13.292C3.00893 14.9148 4.33587 16.242 5.95874 16.242L5.95874 16.042L5.95874 15.842C4.55683 15.842 3.4089 14.6939 3.40874 13.292L3.20874 13.292ZM5.95874 16.042L5.95874 16.242L10.0837 16.242L10.0837 16.042L10.0837 15.842L5.95874 15.842L5.95874 16.042ZM10.0837 16.042L10.2837 16.042L10.2837 14.0254L10.0837 14.0254L9.88374 14.0254L9.88374 16.042L10.0837 16.042ZM10.0837 14.0254L9.96252 14.1845L13.8121 17.1181L13.9333 16.959L14.0546 16.7999L10.205 13.8663L10.0837 14.0254ZM13.9333 16.959L13.8122 16.7999L9.96254 19.7325L10.0837 19.8916L10.2049 20.0507L14.0545 17.1181L13.9333 16.959ZM20.6248 13.292L20.4248 13.292C20.4246 15.7022 18.452 17.675 16.0417 17.675L16.0417 17.875L16.0418 18.075C18.6729 18.075 20.8246 15.9231 20.8248 13.292L20.6248 13.292ZM16.0417 17.875L16.2417 17.875L16.2417 16.042L16.0417 16.042L15.8417 16.042L15.8417 17.875L16.0417 17.875ZM16.0417 16.042L16.0418 16.242C17.6646 16.2419 18.9916 14.9148 18.9917 13.292L18.7917 13.292L18.5917 13.292C18.5916 14.6939 17.4436 15.842 16.0417 15.842L16.0417 16.042ZM18.7917 13.292L18.9917 13.292L18.9917 8.70801L18.7917 8.70801L18.5917 8.70801L18.5917 13.292L18.7917 13.292ZM18.7917 8.70801L18.9917 8.70799C18.9916 7.08524 17.6646 5.75806 16.0418 5.75801L16.0417 5.95801L16.0417 6.15801C17.4436 6.15805 18.5916 7.30613 18.5917 8.70803L18.7917 8.70801ZM16.0417 5.95801L16.0417 5.75801L11.9167 5.75801L11.9167 5.95801L11.9167 6.15801L16.0417 6.15801L16.0417 5.95801ZM11.9167 5.95801L11.7167 5.95801L11.7167 7.97363L11.9167 7.97363L12.1167 7.97363L12.1167 5.95801L11.9167 5.95801ZM11.9167 7.97363L12.0379 7.81452L8.18734 4.88191L8.06616 5.04102L7.94498 5.20013L11.7956 8.13274L11.9167 7.97363ZM8.06616 5.04102L8.18737 5.20011L12.038 2.26651L11.9167 2.10742L11.7955 1.94833L7.94496 4.88193L8.06616 5.04102ZM11.9167 2.10742L11.7167 2.10742L11.7167 4.125L11.9167 4.125L12.1167 4.125L12.1167 2.10742L11.9167 2.10742ZM11.9167 4.125L11.9167 4.325L16.0417 4.325L16.0417 4.125L16.0417 3.925L11.9167 3.925L11.9167 4.125ZM16.0417 4.125L16.0417 4.325C18.452 4.32504 20.4246 6.2978 20.4248 8.70802L20.6248 8.70801L20.8248 8.70799C20.8246 6.0769 18.6729 3.92505 16.0418 3.925L16.0417 4.125ZM20.6248 8.70801L20.4248 8.70801L20.4248 13.292L20.6248 13.292L20.8248 13.292L20.8248 8.70801L20.6248 8.70801Z" fill="#EDEDED"/>
</svg>
