<svg width="69" height="52" viewBox="0 0 69 52" fill="none" xmlns="http://www.w3.org/2000/svg">
<path d="M34.5 17.6673C35.4205 17.6673 36.1667 16.9211 36.1667 16.0007C36.1667 15.0802 35.4205 14.334 34.5 14.334C33.5795 14.334 32.8333 15.0802 32.8333 16.0007C32.8333 16.9211 33.5795 17.6673 34.5 17.6673Z" stroke="white"/>
<path d="M28.9992 10.9004L29.3117 10.3587C29.189 10.2879 29.0459 10.2609 28.9058 10.2821C28.7658 10.3033 28.6371 10.3715 28.5408 10.4754L28.9992 10.9004ZM27.3333 13.787L26.7358 13.602C26.694 13.7374 26.6995 13.883 26.7513 14.0149C26.803 14.1467 26.8981 14.2571 27.0208 14.3279L27.3333 13.787ZM27.3317 18.2129L27.0192 17.6712C26.8964 17.7421 26.8014 17.8527 26.7498 17.9848C26.6981 18.1168 26.6929 18.2625 26.735 18.3979L27.3317 18.2129ZM28.9983 21.0995L28.54 21.5245C28.6363 21.6285 28.7649 21.6966 28.905 21.7178C29.045 21.739 29.1881 21.712 29.3108 21.6412L28.9983 21.0995ZM32.8317 23.312H32.2067C32.2067 23.6037 32.4092 23.8562 32.6933 23.9212L32.8317 23.312ZM36.1658 23.3137L36.305 23.9237C36.4431 23.8922 36.5665 23.8146 36.6547 23.7038C36.743 23.5929 36.791 23.4554 36.7908 23.3137H36.1658ZM40 21.1004L39.6875 21.642C39.8102 21.7128 39.9533 21.7398 40.0933 21.7186C40.2334 21.6974 40.3621 21.6293 40.4583 21.5254L40 21.1004ZM41.665 18.212L42.2625 18.397C42.3043 18.2617 42.2989 18.1161 42.2471 17.9842C42.1953 17.8524 42.1002 17.742 41.9775 17.6712L41.665 18.212ZM41.6667 13.7862L41.9792 14.3279C42.1019 14.2569 42.1969 14.1464 42.2486 14.0143C42.3002 13.8823 42.3054 13.7366 42.2633 13.6012L41.6667 13.7862ZM40 10.8987L40.4583 10.4745C40.3621 10.3706 40.2334 10.3025 40.0933 10.2813C39.9533 10.2601 39.8102 10.2871 39.6875 10.3579L40 10.8987ZM36.1667 8.68788H36.7917C36.7916 8.54633 36.7436 8.40898 36.6553 8.29832C36.567 8.18766 36.4438 8.11023 36.3058 8.07871L36.1667 8.68788ZM32.8333 8.68621L32.6942 8.07621C32.556 8.10776 32.4327 8.18531 32.3444 8.29614C32.2562 8.40698 32.2082 8.54452 32.2083 8.68621H32.8333ZM27.9308 13.972C28.2341 12.9861 28.7557 12.0812 29.4567 11.3245L28.54 10.4745C27.7116 11.3687 27.0953 12.4379 26.7367 13.6029L27.9308 13.972ZM28.5458 19.4379C28.2886 18.9928 28.0817 18.5204 27.9292 18.0295L26.7358 18.3987C26.9157 18.9788 27.1597 19.5369 27.4633 20.0629L28.5458 19.4379ZM29.4575 20.6762C29.1085 20.2986 28.8027 19.8833 28.5458 19.4379L27.4633 20.0629C27.7667 20.5889 28.1279 21.0786 28.54 21.5245L29.4575 20.6762ZM36.0275 22.7054C35.022 22.9342 33.9778 22.9337 32.9725 22.7037L32.6942 23.922C33.8826 24.1941 35.117 24.195 36.3058 23.9245L36.0275 22.7054ZM41.0692 18.0287C40.7659 19.0146 40.2443 19.9195 39.5433 20.6762L40.46 21.5262C41.2884 20.6321 41.9047 19.5628 42.2633 18.3979L41.0692 18.0287ZM40.4542 12.5629C40.7158 13.0201 40.9214 13.4895 41.0708 13.9712L42.2642 13.602C42.0843 13.022 41.8403 12.4638 41.5367 11.9379L40.4542 12.5629ZM39.5417 11.3245C39.8833 11.6937 40.19 12.1079 40.4533 12.5629L41.5367 11.9379C41.233 11.4118 40.8708 10.9205 40.4583 10.4745L39.5417 11.3245ZM32.9717 9.29538C33.9772 9.06652 35.0214 9.06709 36.0267 9.29704L36.3058 8.07871C35.1174 7.80664 33.8821 7.80579 32.6933 8.07621L32.9717 9.29538ZM33.4575 10.227V8.68538H32.2075V10.227H33.4575ZM30.6458 11.1287L29.3117 10.3587L28.6867 11.4412L30.02 12.2112L30.6458 11.1287ZM28.3542 16.9029L27.02 17.6729L27.645 18.7554L28.9792 17.9854L28.3542 16.9029ZM28.9792 14.0154L27.6458 13.2462L27.0208 14.3295L28.3542 15.0987L28.9792 14.0154ZM33.4583 23.3129V21.7737H32.2083V23.3129H33.4583ZM30.0208 19.7895L28.6867 20.5595L29.3117 21.6429L30.645 20.872L30.0208 19.7895ZM40.3133 20.5595L38.9792 19.7895L38.3542 20.872L39.6875 21.642L40.3133 20.5595ZM36.7917 23.3145V21.7737H35.5417V23.3154L36.7917 23.3145ZM41.355 13.2454L40.0208 14.0154L40.6458 15.0987L41.9792 14.3279L41.355 13.2454ZM41.9783 17.672L40.6458 16.902L40.0208 17.9854L41.3542 18.7545L41.9783 17.672ZM36.7917 10.227V8.68788H35.5417V10.227H36.7917ZM39.6883 10.3587L38.3542 11.1287L38.9792 12.212L40.3133 11.4412L39.6883 10.3587ZM35.5417 10.227C35.5417 11.9912 37.4517 13.0945 38.9792 12.212L38.3542 11.1287C38.1958 11.2201 38.0163 11.2682 37.8334 11.2683C37.6506 11.2683 37.471 11.2202 37.3127 11.1288C37.1544 11.0374 37.0228 10.906 36.9314 10.7477C36.8399 10.5894 36.7917 10.4099 36.7917 10.227H35.5417ZM40.0208 14.0154C38.4933 14.8979 38.4933 17.1029 40.0208 17.9854L40.6458 16.902C40.4875 16.8106 40.356 16.6791 40.2646 16.5208C40.1732 16.3624 40.125 16.1828 40.125 16C40.125 15.8171 40.1732 15.6375 40.2646 15.4791C40.356 15.3208 40.4875 15.1893 40.6458 15.0979L40.0208 14.0154ZM38.9792 19.7895C37.4517 18.907 35.5417 20.0095 35.5417 21.7737H36.7917C36.7917 21.5909 36.8399 21.4113 36.9314 21.253C37.0228 21.0947 37.1544 20.9633 37.3127 20.8719C37.471 20.7806 37.6506 20.7325 37.8334 20.7325C38.0163 20.7325 38.1958 20.7806 38.3542 20.872L38.9792 19.7895ZM33.4583 21.7737C33.4583 20.0095 31.5483 18.907 30.0208 19.7895L30.645 20.872C30.8033 20.7806 30.9837 20.7325 31.1666 20.7325C31.3494 20.7325 31.529 20.7806 31.6873 20.8719C31.8456 20.9633 31.9772 21.0947 32.0686 21.253C32.1601 21.4113 32.2083 21.5909 32.2083 21.7737H33.4583ZM28.9792 17.9854C30.5067 17.1029 30.5067 14.8979 28.9792 14.0154L28.3542 15.0987C28.5125 15.1901 28.644 15.3216 28.7354 15.48C28.8268 15.6383 28.875 15.818 28.875 16.0008C28.875 16.1836 28.8268 16.3633 28.7354 16.5216C28.644 16.68 28.5125 16.8114 28.3542 16.9029L28.9792 17.9854ZM32.2083 10.227C32.2083 10.4099 32.1601 10.5894 32.0686 10.7477C31.9772 10.906 31.8456 11.0374 31.6873 11.1288C31.529 11.2202 31.3494 11.2683 31.1666 11.2683C30.9837 11.2682 30.8042 11.2201 30.6458 11.1287L30.0208 12.212C31.5483 13.0937 33.4583 11.9912 33.4583 10.227H32.2083Z" fill="white"/>
<path d="M16.1816 42.144C15.5656 42.144 15.0296 42.032 14.5736 41.808C14.1176 41.584 13.7656 41.272 13.5176 40.872C13.2696 40.472 13.1456 40.008 13.1456 39.48H14.2016C14.2016 39.808 14.2776 40.112 14.4296 40.392C14.5816 40.664 14.8016 40.884 15.0896 41.052C15.3856 41.212 15.7496 41.292 16.1816 41.292C16.5576 41.292 16.8776 41.232 17.1416 41.112C17.4136 40.984 17.6176 40.812 17.7536 40.596C17.8976 40.38 17.9696 40.136 17.9696 39.864C17.9696 39.536 17.8976 39.272 17.7536 39.072C17.6176 38.864 17.4296 38.696 17.1896 38.568C16.9496 38.44 16.6696 38.328 16.3496 38.232C16.0376 38.128 15.7096 38.02 15.3656 37.908C14.7016 37.684 14.2136 37.404 13.9016 37.068C13.5896 36.732 13.4336 36.296 13.4336 35.76C13.4336 35.304 13.5376 34.904 13.7456 34.56C13.9616 34.216 14.2656 33.948 14.6576 33.756C15.0576 33.556 15.5296 33.456 16.0736 33.456C16.6096 33.456 17.0736 33.556 17.4656 33.756C17.8656 33.956 18.1776 34.232 18.4016 34.584C18.6256 34.928 18.7376 35.328 18.7376 35.784H17.6816C17.6816 35.552 17.6216 35.324 17.5016 35.1C17.3816 34.876 17.1976 34.692 16.9496 34.548C16.7096 34.396 16.4056 34.32 16.0376 34.32C15.7336 34.312 15.4616 34.364 15.2216 34.476C14.9896 34.58 14.8056 34.732 14.6696 34.932C14.5416 35.132 14.4776 35.376 14.4776 35.664C14.4776 35.936 14.5336 36.156 14.6456 36.324C14.7656 36.492 14.9336 36.636 15.1496 36.756C15.3736 36.868 15.6336 36.972 15.9296 37.068C16.2256 37.164 16.5536 37.272 16.9136 37.392C17.3216 37.528 17.6816 37.696 17.9936 37.896C18.3136 38.088 18.5616 38.336 18.7376 38.64C18.9216 38.944 19.0136 39.332 19.0136 39.804C19.0136 40.204 18.9056 40.584 18.6896 40.944C18.4816 41.296 18.1696 41.584 17.7536 41.808C17.3376 42.032 16.8136 42.144 16.1816 42.144ZM22.8186 42.144C22.2506 42.144 21.7466 42.012 21.3066 41.748C20.8746 41.484 20.5346 41.116 20.2866 40.644C20.0386 40.164 19.9146 39.608 19.9146 38.976C19.9146 38.336 20.0346 37.78 20.2746 37.308C20.5226 36.836 20.8666 36.468 21.3066 36.204C21.7546 35.94 22.2666 35.808 22.8426 35.808C23.4346 35.808 23.9346 35.94 24.3426 36.204C24.7586 36.468 25.0746 36.816 25.2906 37.248C25.5146 37.672 25.6266 38.14 25.6266 38.652C25.6266 38.732 25.6266 38.816 25.6266 38.904C25.6266 38.992 25.6226 39.092 25.6146 39.204H20.6706V38.424H24.6426C24.6186 37.872 24.4346 37.44 24.0906 37.128C23.7546 36.816 23.3306 36.66 22.8186 36.66C22.4746 36.66 22.1546 36.74 21.8586 36.9C21.5706 37.052 21.3386 37.28 21.1626 37.584C20.9866 37.88 20.8986 38.252 20.8986 38.7V39.036C20.8986 39.532 20.9866 39.948 21.1626 40.284C21.3466 40.62 21.5826 40.872 21.8706 41.04C22.1666 41.208 22.4826 41.292 22.8186 41.292C23.2426 41.292 23.5906 41.2 23.8626 41.016C24.1426 40.824 24.3426 40.568 24.4626 40.248H25.4586C25.3626 40.608 25.1946 40.932 24.9546 41.22C24.7146 41.508 24.4146 41.736 24.0546 41.904C23.7026 42.064 23.2906 42.144 22.8186 42.144ZM28.9237 42C28.5637 42 28.2517 41.944 27.9877 41.832C27.7237 41.72 27.5197 41.532 27.3757 41.268C27.2397 40.996 27.1717 40.632 27.1717 40.176V36.804H26.1157V35.952H27.1717L27.3037 34.488H28.1797V35.952H29.9317V36.804H28.1797V40.176C28.1797 40.552 28.2557 40.808 28.4077 40.944C28.5597 41.072 28.8277 41.136 29.2117 41.136H29.8597V42H28.9237ZM33.3829 42C33.0229 42 32.7109 41.944 32.4469 41.832C32.1829 41.72 31.9789 41.532 31.8349 41.268C31.6989 40.996 31.6309 40.632 31.6309 40.176V36.804H30.5749V35.952H31.6309L31.7629 34.488H32.6389V35.952H34.3909V36.804H32.6389V40.176C32.6389 40.552 32.7149 40.808 32.8669 40.944C33.0189 41.072 33.2869 41.136 33.6709 41.136H34.3189V42H33.3829ZM35.5621 42V35.952H36.5701V42H35.5621ZM36.0661 34.668C35.8661 34.668 35.6981 34.604 35.5621 34.476C35.4341 34.34 35.3701 34.172 35.3701 33.972C35.3701 33.772 35.4341 33.612 35.5621 33.492C35.6981 33.364 35.8661 33.3 36.0661 33.3C36.2581 33.3 36.4221 33.364 36.5581 33.492C36.6941 33.612 36.7621 33.772 36.7621 33.972C36.7621 34.172 36.6941 34.34 36.5581 34.476C36.4221 34.604 36.2581 34.668 36.0661 34.668ZM38.1089 42V35.952H39.0209L39.0689 37.008C39.2609 36.632 39.5329 36.34 39.8849 36.132C40.2449 35.916 40.6529 35.808 41.1089 35.808C41.5809 35.808 41.9889 35.904 42.3329 36.096C42.6769 36.28 42.9449 36.564 43.1369 36.948C43.3289 37.324 43.4249 37.804 43.4249 38.388V42H42.4169V38.496C42.4169 37.888 42.2809 37.432 42.0089 37.128C41.7449 36.824 41.3689 36.672 40.8809 36.672C40.5449 36.672 40.2449 36.756 39.9809 36.924C39.7169 37.084 39.5049 37.32 39.3449 37.632C39.1929 37.936 39.1169 38.316 39.1169 38.772V42H38.1089ZM47.1475 44.784C46.6035 44.784 46.1195 44.712 45.6955 44.568C45.2795 44.432 44.9555 44.22 44.7235 43.932C44.4915 43.644 44.3755 43.288 44.3755 42.864C44.3755 42.68 44.4115 42.484 44.4835 42.276C44.5635 42.068 44.6955 41.864 44.8795 41.664C45.0715 41.464 45.3395 41.284 45.6835 41.124L46.3795 41.532C45.9555 41.708 45.6795 41.908 45.5515 42.132C45.4235 42.364 45.3595 42.576 45.3595 42.768C45.3595 43.032 45.4355 43.252 45.5875 43.428C45.7395 43.604 45.9515 43.736 46.2235 43.824C46.4955 43.912 46.8035 43.956 47.1475 43.956C47.4915 43.956 47.7875 43.908 48.0355 43.812C48.2835 43.716 48.4755 43.58 48.6115 43.404C48.7475 43.228 48.8155 43.02 48.8155 42.78C48.8155 42.5 48.7115 42.264 48.5035 42.072C48.2955 41.888 47.8995 41.78 47.3155 41.748C46.8435 41.716 46.4475 41.672 46.1275 41.616C45.8075 41.56 45.5435 41.496 45.3355 41.424C45.1275 41.344 44.9515 41.256 44.8075 41.16C44.6715 41.064 44.5475 40.964 44.4355 40.86V40.584L45.5995 39.432L46.4755 39.744L45.2755 40.824L45.4315 40.404C45.5195 40.468 45.6035 40.528 45.6835 40.584C45.7635 40.64 45.8715 40.688 46.0075 40.728C46.1435 40.768 46.3315 40.804 46.5715 40.836C46.8195 40.868 47.1435 40.9 47.5435 40.932C48.0955 40.972 48.5355 41.068 48.8635 41.22C49.1995 41.372 49.4395 41.576 49.5835 41.832C49.7355 42.088 49.8115 42.392 49.8115 42.744C49.8115 43.088 49.7155 43.412 49.5235 43.716C49.3395 44.028 49.0515 44.284 48.6595 44.484C48.2675 44.684 47.7635 44.784 47.1475 44.784ZM47.1355 40.104C46.6315 40.104 46.1995 40.008 45.8395 39.816C45.4875 39.624 45.2195 39.368 45.0355 39.048C44.8515 38.72 44.7595 38.356 44.7595 37.956C44.7595 37.556 44.8515 37.196 45.0355 36.876C45.2275 36.556 45.4995 36.3 45.8515 36.108C46.2035 35.908 46.6315 35.808 47.1355 35.808C47.6395 35.808 48.0675 35.908 48.4195 36.108C48.7715 36.3 49.0395 36.556 49.2235 36.876C49.4075 37.196 49.4995 37.556 49.4995 37.956C49.4995 38.356 49.4075 38.72 49.2235 39.048C49.0395 39.368 48.7715 39.624 48.4195 39.816C48.0675 40.008 47.6395 40.104 47.1355 40.104ZM47.1355 39.276C47.5675 39.276 47.9075 39.164 48.1555 38.94C48.4035 38.716 48.5275 38.388 48.5275 37.956C48.5275 37.532 48.4035 37.208 48.1555 36.984C47.9075 36.76 47.5675 36.648 47.1355 36.648C46.7115 36.648 46.3675 36.76 46.1035 36.984C45.8475 37.208 45.7195 37.532 45.7195 37.956C45.7195 38.388 45.8475 38.716 46.1035 38.94C46.3595 39.164 46.7035 39.276 47.1355 39.276ZM48.1195 36.804L47.8195 35.952H50.2915V36.708L48.1195 36.804ZM53.4909 42.144C52.9869 42.144 52.5469 42.06 52.1709 41.892C51.8029 41.724 51.5069 41.492 51.2829 41.196C51.0669 40.892 50.9349 40.536 50.8869 40.128H51.9189C51.9589 40.336 52.0429 40.528 52.1709 40.704C52.2989 40.88 52.4709 41.024 52.6869 41.136C52.9109 41.24 53.1829 41.292 53.5029 41.292C53.7829 41.292 54.0149 41.252 54.1989 41.172C54.3829 41.084 54.5189 40.968 54.6069 40.824C54.7029 40.68 54.7509 40.524 54.7509 40.356C54.7509 40.108 54.6909 39.92 54.5709 39.792C54.4589 39.664 54.2909 39.564 54.0669 39.492C53.8429 39.412 53.5709 39.344 53.2509 39.288C52.9869 39.24 52.7269 39.176 52.4709 39.096C52.2149 39.016 51.9869 38.912 51.7869 38.784C51.5869 38.648 51.4269 38.484 51.3069 38.292C51.1949 38.1 51.1389 37.864 51.1389 37.584C51.1389 37.24 51.2269 36.936 51.4029 36.672C51.5789 36.4 51.8309 36.188 52.1589 36.036C52.4949 35.884 52.8829 35.808 53.3229 35.808C53.9709 35.808 54.4949 35.964 54.8949 36.276C55.2949 36.588 55.5309 37.04 55.6029 37.632H54.6069C54.5669 37.328 54.4349 37.092 54.2109 36.924C53.9949 36.748 53.6949 36.66 53.3109 36.66C52.9349 36.66 52.6469 36.736 52.4469 36.888C52.2549 37.04 52.1589 37.24 52.1589 37.488C52.1589 37.648 52.2109 37.792 52.3149 37.92C52.4269 38.04 52.5869 38.144 52.7949 38.232C53.0109 38.32 53.2749 38.392 53.5869 38.448C53.9869 38.52 54.3509 38.616 54.6789 38.736C55.0069 38.856 55.2709 39.036 55.4709 39.276C55.6789 39.508 55.7829 39.84 55.7829 40.272C55.7829 40.648 55.6869 40.976 55.4949 41.256C55.3109 41.536 55.0469 41.756 54.7029 41.916C54.3589 42.068 53.9549 42.144 53.4909 42.144Z" fill="white"/>
</svg>
