<svg width="400" height="300" xmlns="http://www.w3.org/2000/svg">
  <rect width="400" height="300" fill="#f3f4f6"/>
  <g transform="translate(60, 70)">
    <!-- Van body (taller) -->
    <rect x="10" y="30" width="240" height="80" rx="6" fill="#1f2937"/>
    <!-- Van top -->
    <rect x="30" y="10" width="200" height="25" rx="4" fill="#374151"/>
    <!-- Multiple windows -->
    <rect x="40" y="15" width="35" height="18" fill="#60a5fa" opacity="0.7"/>
    <rect x="85" y="15" width="40" height="18" fill="#60a5fa" opacity="0.7"/>
    <rect x="135" y="15" width="40" height="18" fill="#60a5fa" opacity="0.7"/>
    <rect x="185" y="15" width="35" height="18" fill="#60a5fa" opacity="0.7"/>
    <!-- Door line -->
    <line x1="150" y1="40" x2="150" y2="105" stroke="#6b7280" stroke-width="2"/>
    <!-- Wheelchair symbol -->
    <g transform="translate(115, 65)">
      <circle cx="0" cy="0" r="8" fill="#3b82f6"/>
      <circle cx="8" cy="12" r="12" fill="none" stroke="#3b82f6" stroke-width="3"/>
      <line x1="8" y1="0" x2="8" y2="12" stroke="#3b82f6" stroke-width="3"/>
    </g>
    <!-- Wheels -->
    <circle cx="50" cy="120" r="20" fill="#111827"/>
    <circle cx="200" cy="120" r="20" fill="#111827"/>
    <circle cx="50" cy="120" r="12" fill="#9ca3af"/>
    <circle cx="200" cy="120" r="12" fill="#9ca3af"/>
  </g>
  <text x="200" y="270" text-anchor="middle" fill="#1f2937" font-size="16" font-family="Arial" font-weight="bold">
    ♿ ADA Accessible Van
  </text>
</svg>